G04 #@! TF.GenerationSoftware,KiCad,Pcbnew,(5.1.5)-3*
G04 #@! TF.CreationDate,2020-09-11T10:44:40-03:00*
G04 #@! TF.ProjectId,HomeTron(kicad),486f6d65-5472-46f6-9e28-6b6963616429,rev?*
G04 #@! TF.SameCoordinates,Original*
G04 #@! TF.FileFunction,Paste,Top*
G04 #@! TF.FilePolarity,Positive*
%FSLAX46Y46*%
G04 Gerber Fmt 4.6, Leading zero omitted, Abs format (unit mm)*
G04 Created by KiCad (PCBNEW (5.1.5)-3) date 2020-09-11 10:44:40*
%MOMM*%
%LPD*%
G04 APERTURE LIST*
%ADD10C,0.100000*%
%ADD11R,2.200000X1.250000*%
%ADD12R,2.200000X2.200000*%
G04 APERTURE END LIST*
D10*
G36*
X20382142Y-48831174D02*
G01*
X20405803Y-48834684D01*
X20429007Y-48840496D01*
X20451529Y-48848554D01*
X20473153Y-48858782D01*
X20493670Y-48871079D01*
X20512883Y-48885329D01*
X20530607Y-48901393D01*
X20546671Y-48919117D01*
X20560921Y-48938330D01*
X20573218Y-48958847D01*
X20583446Y-48980471D01*
X20591504Y-49002993D01*
X20597316Y-49026197D01*
X20600826Y-49049858D01*
X20602000Y-49073750D01*
X20602000Y-49986250D01*
X20600826Y-50010142D01*
X20597316Y-50033803D01*
X20591504Y-50057007D01*
X20583446Y-50079529D01*
X20573218Y-50101153D01*
X20560921Y-50121670D01*
X20546671Y-50140883D01*
X20530607Y-50158607D01*
X20512883Y-50174671D01*
X20493670Y-50188921D01*
X20473153Y-50201218D01*
X20451529Y-50211446D01*
X20429007Y-50219504D01*
X20405803Y-50225316D01*
X20382142Y-50228826D01*
X20358250Y-50230000D01*
X19870750Y-50230000D01*
X19846858Y-50228826D01*
X19823197Y-50225316D01*
X19799993Y-50219504D01*
X19777471Y-50211446D01*
X19755847Y-50201218D01*
X19735330Y-50188921D01*
X19716117Y-50174671D01*
X19698393Y-50158607D01*
X19682329Y-50140883D01*
X19668079Y-50121670D01*
X19655782Y-50101153D01*
X19645554Y-50079529D01*
X19637496Y-50057007D01*
X19631684Y-50033803D01*
X19628174Y-50010142D01*
X19627000Y-49986250D01*
X19627000Y-49073750D01*
X19628174Y-49049858D01*
X19631684Y-49026197D01*
X19637496Y-49002993D01*
X19645554Y-48980471D01*
X19655782Y-48958847D01*
X19668079Y-48938330D01*
X19682329Y-48919117D01*
X19698393Y-48901393D01*
X19716117Y-48885329D01*
X19735330Y-48871079D01*
X19755847Y-48858782D01*
X19777471Y-48848554D01*
X19799993Y-48840496D01*
X19823197Y-48834684D01*
X19846858Y-48831174D01*
X19870750Y-48830000D01*
X20358250Y-48830000D01*
X20382142Y-48831174D01*
G37*
G36*
X18507142Y-48831174D02*
G01*
X18530803Y-48834684D01*
X18554007Y-48840496D01*
X18576529Y-48848554D01*
X18598153Y-48858782D01*
X18618670Y-48871079D01*
X18637883Y-48885329D01*
X18655607Y-48901393D01*
X18671671Y-48919117D01*
X18685921Y-48938330D01*
X18698218Y-48958847D01*
X18708446Y-48980471D01*
X18716504Y-49002993D01*
X18722316Y-49026197D01*
X18725826Y-49049858D01*
X18727000Y-49073750D01*
X18727000Y-49986250D01*
X18725826Y-50010142D01*
X18722316Y-50033803D01*
X18716504Y-50057007D01*
X18708446Y-50079529D01*
X18698218Y-50101153D01*
X18685921Y-50121670D01*
X18671671Y-50140883D01*
X18655607Y-50158607D01*
X18637883Y-50174671D01*
X18618670Y-50188921D01*
X18598153Y-50201218D01*
X18576529Y-50211446D01*
X18554007Y-50219504D01*
X18530803Y-50225316D01*
X18507142Y-50228826D01*
X18483250Y-50230000D01*
X17995750Y-50230000D01*
X17971858Y-50228826D01*
X17948197Y-50225316D01*
X17924993Y-50219504D01*
X17902471Y-50211446D01*
X17880847Y-50201218D01*
X17860330Y-50188921D01*
X17841117Y-50174671D01*
X17823393Y-50158607D01*
X17807329Y-50140883D01*
X17793079Y-50121670D01*
X17780782Y-50101153D01*
X17770554Y-50079529D01*
X17762496Y-50057007D01*
X17756684Y-50033803D01*
X17753174Y-50010142D01*
X17752000Y-49986250D01*
X17752000Y-49073750D01*
X17753174Y-49049858D01*
X17756684Y-49026197D01*
X17762496Y-49002993D01*
X17770554Y-48980471D01*
X17780782Y-48958847D01*
X17793079Y-48938330D01*
X17807329Y-48919117D01*
X17823393Y-48901393D01*
X17841117Y-48885329D01*
X17860330Y-48871079D01*
X17880847Y-48858782D01*
X17902471Y-48848554D01*
X17924993Y-48840496D01*
X17948197Y-48834684D01*
X17971858Y-48831174D01*
X17995750Y-48830000D01*
X18483250Y-48830000D01*
X18507142Y-48831174D01*
G37*
D11*
X68402200Y-17905320D03*
D12*
X68402200Y-15630320D03*
M02*
