M48
; DRILL file {KiCad (5.1.5)-3} date 11/09/2020 10:44:51
; FORMAT={-:-/ absolute / inch / decimal}
; #@! TF.CreationDate,2020-09-11T10:44:51-03:00
; #@! TF.GenerationSoftware,Kicad,Pcbnew,(5.1.5)-3
; #@! TF.FileFunction,Plated,1,2,PTH
FMAT,2
INCH
T1C0.0157
T2C0.0295
T3C0.0343
T4C0.0394
T5C0.0512
T6C0.0551
T7C0.0630
%
G90
G05
T1
X1.1565Y-2.0105
X1.7045Y-1.991
X1.9612Y-1.4506
X2.016Y-1.8725
X2.0555Y-2.0425
X2.133Y-1.4506
X2.2088Y-1.0068
X2.274Y-2.0085
X2.354Y-1.3894
X2.4105Y-2.313
X2.518Y-2.425
X2.6776Y-0.7944
X2.697Y-0.5372
T2
X1.0626Y-2.3411
X1.1606Y-2.3411
X1.2586Y-2.3411
T3
X2.6495Y-1.8635
X2.6495Y-1.9635
X2.6495Y-2.0635
X2.6495Y-2.1635
X2.6495Y-2.2635
X2.6495Y-2.3635
T4
X0.6423Y-0.6385
X0.847Y-1.796
X1.0439Y-1.796
X1.2486Y-0.6385
X2.283Y-0.688
X2.4306Y-0.688
T5
X1.4464Y-0.688
X1.6432Y-0.688
X1.8401Y-0.688
T6
X0.7539Y-2.1051
X0.7539Y-2.3256
X2.5537Y-0.9291
X2.5537Y-1.1496
T7
X1.5778Y-1.1529
X1.5778Y-1.3458
X1.5778Y-1.5387
T0
M30
