G04 #@! TF.GenerationSoftware,KiCad,Pcbnew,(5.1.5)-3*
G04 #@! TF.CreationDate,2020-09-11T10:44:40-03:00*
G04 #@! TF.ProjectId,HomeTron(kicad),486f6d65-5472-46f6-9e28-6b6963616429,rev?*
G04 #@! TF.SameCoordinates,Original*
G04 #@! TF.FileFunction,Soldermask,Top*
G04 #@! TF.FilePolarity,Negative*
%FSLAX46Y46*%
G04 Gerber Fmt 4.6, Leading zero omitted, Abs format (unit mm)*
G04 Created by KiCad (PCBNEW (5.1.5)-3) date 2020-09-11 10:44:40*
%MOMM*%
%LPD*%
G04 APERTURE LIST*
%ADD10C,0.100000*%
G04 APERTURE END LIST*
D10*
G36*
X68121631Y-59401349D02*
G01*
X68159165Y-59412735D01*
X68193764Y-59431229D01*
X68224086Y-59456114D01*
X68248971Y-59486436D01*
X68267465Y-59521035D01*
X68278851Y-59558569D01*
X68283300Y-59603746D01*
X68283300Y-60462054D01*
X68278851Y-60507231D01*
X68267465Y-60544765D01*
X68248971Y-60579364D01*
X68224086Y-60609686D01*
X68193764Y-60634571D01*
X68159165Y-60653065D01*
X68121631Y-60664451D01*
X68076454Y-60668900D01*
X66518146Y-60668900D01*
X66472969Y-60664451D01*
X66435435Y-60653065D01*
X66400836Y-60634571D01*
X66370514Y-60609686D01*
X66345629Y-60579364D01*
X66327135Y-60544765D01*
X66315749Y-60507231D01*
X66311300Y-60462054D01*
X66311300Y-59603746D01*
X66315749Y-59558569D01*
X66327135Y-59521035D01*
X66345629Y-59486436D01*
X66370514Y-59456114D01*
X66400836Y-59431229D01*
X66435435Y-59412735D01*
X66472969Y-59401349D01*
X66518146Y-59396900D01*
X68076454Y-59396900D01*
X68121631Y-59401349D01*
G37*
G36*
X20310554Y-57772490D02*
G01*
X20342632Y-57782221D01*
X20372195Y-57798023D01*
X20398110Y-57819290D01*
X20419377Y-57845205D01*
X20435179Y-57874768D01*
X20444910Y-57906846D01*
X20448800Y-57946348D01*
X20448800Y-60192852D01*
X20444910Y-60232354D01*
X20435179Y-60264432D01*
X20419377Y-60293995D01*
X20398110Y-60319910D01*
X20372195Y-60341177D01*
X20342632Y-60356979D01*
X20310554Y-60366710D01*
X20271052Y-60370600D01*
X18024548Y-60370600D01*
X17985046Y-60366710D01*
X17952968Y-60356979D01*
X17923405Y-60341177D01*
X17897490Y-60319910D01*
X17876223Y-60293995D01*
X17860421Y-60264432D01*
X17850690Y-60232354D01*
X17846800Y-60192852D01*
X17846800Y-57946348D01*
X17850690Y-57906846D01*
X17860421Y-57874768D01*
X17876223Y-57845205D01*
X17897490Y-57819290D01*
X17923405Y-57798023D01*
X17952968Y-57782221D01*
X17985046Y-57772490D01*
X18024548Y-57768600D01*
X20271052Y-57768600D01*
X20310554Y-57772490D01*
G37*
G36*
X29712942Y-58692981D02*
G01*
X29817392Y-58736246D01*
X29858716Y-58753363D01*
X29989908Y-58841022D01*
X30101478Y-58952592D01*
X30189137Y-59083784D01*
X30189138Y-59083786D01*
X30249519Y-59229558D01*
X30280300Y-59384307D01*
X30280300Y-59542093D01*
X30249519Y-59696842D01*
X30189138Y-59842614D01*
X30189137Y-59842616D01*
X30101478Y-59973808D01*
X29989908Y-60085378D01*
X29858716Y-60173037D01*
X29858715Y-60173038D01*
X29858714Y-60173038D01*
X29712942Y-60233419D01*
X29558193Y-60264200D01*
X29400407Y-60264200D01*
X29245658Y-60233419D01*
X29099886Y-60173038D01*
X29099885Y-60173038D01*
X29099884Y-60173037D01*
X28968692Y-60085378D01*
X28857122Y-59973808D01*
X28769463Y-59842616D01*
X28769462Y-59842614D01*
X28709081Y-59696842D01*
X28678300Y-59542093D01*
X28678300Y-59384307D01*
X28709081Y-59229558D01*
X28769462Y-59083786D01*
X28769463Y-59083784D01*
X28857122Y-58952592D01*
X28968692Y-58841022D01*
X29099884Y-58753363D01*
X29141208Y-58736246D01*
X29245658Y-58692981D01*
X29400407Y-58662200D01*
X29558193Y-58662200D01*
X29712942Y-58692981D01*
G37*
G36*
X32715764Y-58664092D02*
G01*
X32728333Y-58667905D01*
X32739918Y-58674097D01*
X32750071Y-58682429D01*
X32758403Y-58692582D01*
X32764595Y-58704167D01*
X32768408Y-58716736D01*
X32770300Y-58735948D01*
X32770300Y-60190452D01*
X32768408Y-60209664D01*
X32764595Y-60222233D01*
X32758403Y-60233818D01*
X32750071Y-60243971D01*
X32739918Y-60252303D01*
X32728333Y-60258495D01*
X32715764Y-60262308D01*
X32696552Y-60264200D01*
X31242048Y-60264200D01*
X31222836Y-60262308D01*
X31210267Y-60258495D01*
X31198682Y-60252303D01*
X31188529Y-60243971D01*
X31180197Y-60233818D01*
X31174005Y-60222233D01*
X31170192Y-60209664D01*
X31168300Y-60190452D01*
X31168300Y-58735948D01*
X31170192Y-58716736D01*
X31174005Y-58704167D01*
X31180197Y-58692582D01*
X31188529Y-58682429D01*
X31198682Y-58674097D01*
X31210267Y-58667905D01*
X31222836Y-58664092D01*
X31242048Y-58662200D01*
X32696552Y-58662200D01*
X32715764Y-58664092D01*
G37*
G36*
X27222942Y-58692981D02*
G01*
X27327392Y-58736246D01*
X27368716Y-58753363D01*
X27499908Y-58841022D01*
X27611478Y-58952592D01*
X27699137Y-59083784D01*
X27699138Y-59083786D01*
X27759519Y-59229558D01*
X27790300Y-59384307D01*
X27790300Y-59542093D01*
X27759519Y-59696842D01*
X27699138Y-59842614D01*
X27699137Y-59842616D01*
X27611478Y-59973808D01*
X27499908Y-60085378D01*
X27368716Y-60173037D01*
X27368715Y-60173038D01*
X27368714Y-60173038D01*
X27222942Y-60233419D01*
X27068193Y-60264200D01*
X26910407Y-60264200D01*
X26755658Y-60233419D01*
X26609886Y-60173038D01*
X26609885Y-60173038D01*
X26609884Y-60173037D01*
X26478692Y-60085378D01*
X26367122Y-59973808D01*
X26279463Y-59842616D01*
X26279462Y-59842614D01*
X26219081Y-59696842D01*
X26188300Y-59542093D01*
X26188300Y-59384307D01*
X26219081Y-59229558D01*
X26279462Y-59083786D01*
X26279463Y-59083784D01*
X26367122Y-58952592D01*
X26478692Y-58841022D01*
X26609884Y-58753363D01*
X26651208Y-58736246D01*
X26755658Y-58692981D01*
X26910407Y-58662200D01*
X27068193Y-58662200D01*
X27222942Y-58692981D01*
G37*
G36*
X67771976Y-56866102D02*
G01*
X67891867Y-56902471D01*
X68002352Y-56961526D01*
X68099196Y-57041004D01*
X68178674Y-57137848D01*
X68237729Y-57248333D01*
X68274098Y-57368224D01*
X68286377Y-57492900D01*
X68274098Y-57617576D01*
X68237729Y-57737467D01*
X68178674Y-57847952D01*
X68099196Y-57944796D01*
X68002352Y-58024274D01*
X67891867Y-58083329D01*
X67771976Y-58119698D01*
X67678544Y-58128900D01*
X66916056Y-58128900D01*
X66822624Y-58119698D01*
X66702733Y-58083329D01*
X66592248Y-58024274D01*
X66495404Y-57944796D01*
X66415926Y-57847952D01*
X66356871Y-57737467D01*
X66320502Y-57617576D01*
X66308223Y-57492900D01*
X66320502Y-57368224D01*
X66356871Y-57248333D01*
X66415926Y-57137848D01*
X66495404Y-57041004D01*
X66592248Y-56961526D01*
X66702733Y-56902471D01*
X66822624Y-56866102D01*
X66916056Y-56856900D01*
X67678544Y-56856900D01*
X67771976Y-56866102D01*
G37*
G36*
X67771976Y-54326102D02*
G01*
X67891867Y-54362471D01*
X68002352Y-54421526D01*
X68099196Y-54501004D01*
X68178674Y-54597848D01*
X68237729Y-54708333D01*
X68274098Y-54828224D01*
X68286377Y-54952900D01*
X68274098Y-55077576D01*
X68237729Y-55197467D01*
X68178674Y-55307952D01*
X68099196Y-55404796D01*
X68002352Y-55484274D01*
X67891867Y-55543329D01*
X67771976Y-55579698D01*
X67678544Y-55588900D01*
X66916056Y-55588900D01*
X66822624Y-55579698D01*
X66702733Y-55543329D01*
X66592248Y-55484274D01*
X66495404Y-55404796D01*
X66415926Y-55307952D01*
X66356871Y-55197467D01*
X66320502Y-55077576D01*
X66308223Y-54952900D01*
X66320502Y-54828224D01*
X66356871Y-54708333D01*
X66415926Y-54597848D01*
X66495404Y-54501004D01*
X66592248Y-54421526D01*
X66702733Y-54362471D01*
X66822624Y-54326102D01*
X66916056Y-54316900D01*
X67678544Y-54316900D01*
X67771976Y-54326102D01*
G37*
G36*
X19527287Y-52218596D02*
G01*
X19695378Y-52288222D01*
X19764055Y-52316669D01*
X19908075Y-52412900D01*
X19977139Y-52459047D01*
X20158353Y-52640261D01*
X20300732Y-52853347D01*
X20398804Y-53090113D01*
X20448800Y-53341461D01*
X20448800Y-53597739D01*
X20398804Y-53849087D01*
X20300732Y-54085853D01*
X20300731Y-54085855D01*
X20158353Y-54298939D01*
X19977139Y-54480153D01*
X19764055Y-54622531D01*
X19764054Y-54622532D01*
X19764053Y-54622532D01*
X19527287Y-54720604D01*
X19275939Y-54770600D01*
X19019661Y-54770600D01*
X18768313Y-54720604D01*
X18531547Y-54622532D01*
X18531546Y-54622532D01*
X18531545Y-54622531D01*
X18318461Y-54480153D01*
X18137247Y-54298939D01*
X17994869Y-54085855D01*
X17994868Y-54085853D01*
X17896796Y-53849087D01*
X17846800Y-53597739D01*
X17846800Y-53341461D01*
X17896796Y-53090113D01*
X17994868Y-52853347D01*
X18137247Y-52640261D01*
X18318461Y-52459047D01*
X18387525Y-52412900D01*
X18531545Y-52316669D01*
X18600222Y-52288222D01*
X18768313Y-52218596D01*
X19019661Y-52168600D01*
X19275939Y-52168600D01*
X19527287Y-52218596D01*
G37*
G36*
X67771976Y-51786102D02*
G01*
X67891867Y-51822471D01*
X68002352Y-51881526D01*
X68099196Y-51961004D01*
X68178674Y-52057848D01*
X68237729Y-52168333D01*
X68274098Y-52288224D01*
X68286377Y-52412900D01*
X68274098Y-52537576D01*
X68237729Y-52657467D01*
X68178674Y-52767952D01*
X68099196Y-52864796D01*
X68002352Y-52944274D01*
X67891867Y-53003329D01*
X67771976Y-53039698D01*
X67678544Y-53048900D01*
X66916056Y-53048900D01*
X66822624Y-53039698D01*
X66702733Y-53003329D01*
X66592248Y-52944274D01*
X66495404Y-52864796D01*
X66415926Y-52767952D01*
X66356871Y-52657467D01*
X66320502Y-52537576D01*
X66308223Y-52412900D01*
X66320502Y-52288224D01*
X66356871Y-52168333D01*
X66415926Y-52057848D01*
X66495404Y-51961004D01*
X66592248Y-51881526D01*
X66702733Y-51822471D01*
X66822624Y-51786102D01*
X66916056Y-51776900D01*
X67678544Y-51776900D01*
X67771976Y-51786102D01*
G37*
G36*
X67771976Y-49246102D02*
G01*
X67891867Y-49282471D01*
X68002352Y-49341526D01*
X68099196Y-49421004D01*
X68178674Y-49517848D01*
X68237729Y-49628333D01*
X68274098Y-49748224D01*
X68286377Y-49872900D01*
X68274098Y-49997576D01*
X68237729Y-50117467D01*
X68178674Y-50227952D01*
X68099196Y-50324796D01*
X68002352Y-50404274D01*
X67891867Y-50463329D01*
X67771976Y-50499698D01*
X67678544Y-50508900D01*
X66916056Y-50508900D01*
X66822624Y-50499698D01*
X66702733Y-50463329D01*
X66592248Y-50404274D01*
X66495404Y-50324796D01*
X66415926Y-50227952D01*
X66356871Y-50117467D01*
X66320502Y-49997576D01*
X66308223Y-49872900D01*
X66320502Y-49748224D01*
X66356871Y-49628333D01*
X66415926Y-49517848D01*
X66495404Y-49421004D01*
X66592248Y-49341526D01*
X66702733Y-49282471D01*
X66822624Y-49246102D01*
X66916056Y-49236900D01*
X67678544Y-49236900D01*
X67771976Y-49246102D01*
G37*
G36*
X20486468Y-48783565D02*
G01*
X20525138Y-48795296D01*
X20560777Y-48814346D01*
X20592017Y-48839983D01*
X20617654Y-48871223D01*
X20636704Y-48906862D01*
X20648435Y-48945532D01*
X20653000Y-48991888D01*
X20653000Y-50068112D01*
X20648435Y-50114468D01*
X20636704Y-50153138D01*
X20617654Y-50188777D01*
X20592017Y-50220017D01*
X20560777Y-50245654D01*
X20525138Y-50264704D01*
X20486468Y-50276435D01*
X20440112Y-50281000D01*
X19788888Y-50281000D01*
X19742532Y-50276435D01*
X19703862Y-50264704D01*
X19668223Y-50245654D01*
X19636983Y-50220017D01*
X19611346Y-50188777D01*
X19592296Y-50153138D01*
X19580565Y-50114468D01*
X19576000Y-50068112D01*
X19576000Y-48991888D01*
X19580565Y-48945532D01*
X19592296Y-48906862D01*
X19611346Y-48871223D01*
X19636983Y-48839983D01*
X19668223Y-48814346D01*
X19703862Y-48795296D01*
X19742532Y-48783565D01*
X19788888Y-48779000D01*
X20440112Y-48779000D01*
X20486468Y-48783565D01*
G37*
G36*
X18611468Y-48783565D02*
G01*
X18650138Y-48795296D01*
X18685777Y-48814346D01*
X18717017Y-48839983D01*
X18742654Y-48871223D01*
X18761704Y-48906862D01*
X18773435Y-48945532D01*
X18778000Y-48991888D01*
X18778000Y-50068112D01*
X18773435Y-50114468D01*
X18761704Y-50153138D01*
X18742654Y-50188777D01*
X18717017Y-50220017D01*
X18685777Y-50245654D01*
X18650138Y-50264704D01*
X18611468Y-50276435D01*
X18565112Y-50281000D01*
X17913888Y-50281000D01*
X17867532Y-50276435D01*
X17828862Y-50264704D01*
X17793223Y-50245654D01*
X17761983Y-50220017D01*
X17736346Y-50188777D01*
X17717296Y-50153138D01*
X17705565Y-50114468D01*
X17701000Y-50068112D01*
X17701000Y-48991888D01*
X17705565Y-48945532D01*
X17717296Y-48906862D01*
X17736346Y-48871223D01*
X17761983Y-48839983D01*
X17793223Y-48814346D01*
X17828862Y-48795296D01*
X17867532Y-48783565D01*
X17913888Y-48779000D01*
X18565112Y-48779000D01*
X18611468Y-48783565D01*
G37*
G36*
X67771976Y-46706102D02*
G01*
X67891867Y-46742471D01*
X68002352Y-46801526D01*
X68099196Y-46881004D01*
X68178674Y-46977848D01*
X68237729Y-47088333D01*
X68274098Y-47208224D01*
X68286377Y-47332900D01*
X68274098Y-47457576D01*
X68237729Y-47577467D01*
X68178674Y-47687952D01*
X68099196Y-47784796D01*
X68002352Y-47864274D01*
X67891867Y-47923329D01*
X67771976Y-47959698D01*
X67678544Y-47968900D01*
X66916056Y-47968900D01*
X66822624Y-47959698D01*
X66702733Y-47923329D01*
X66592248Y-47864274D01*
X66495404Y-47784796D01*
X66415926Y-47687952D01*
X66356871Y-47577467D01*
X66320502Y-47457576D01*
X66308223Y-47332900D01*
X66320502Y-47208224D01*
X66356871Y-47088333D01*
X66415926Y-46977848D01*
X66495404Y-46881004D01*
X66592248Y-46801526D01*
X66702733Y-46742471D01*
X66822624Y-46706102D01*
X66916056Y-46696900D01*
X67678544Y-46696900D01*
X67771976Y-46706102D01*
G37*
G36*
X22564800Y-46819400D02*
G01*
X20462800Y-46819400D01*
X20462800Y-44417400D01*
X22564800Y-44417400D01*
X22564800Y-46819400D01*
G37*
G36*
X26864118Y-44463553D02*
G01*
X27082685Y-44554087D01*
X27082687Y-44554088D01*
X27279393Y-44685522D01*
X27446678Y-44852807D01*
X27578112Y-45049513D01*
X27578113Y-45049515D01*
X27668647Y-45268082D01*
X27714800Y-45500110D01*
X27714800Y-45736690D01*
X27668647Y-45968718D01*
X27578113Y-46187285D01*
X27578112Y-46187287D01*
X27446678Y-46383993D01*
X27279393Y-46551278D01*
X27082687Y-46682712D01*
X27082686Y-46682713D01*
X27082685Y-46682713D01*
X26864118Y-46773247D01*
X26632090Y-46819400D01*
X26395510Y-46819400D01*
X26163482Y-46773247D01*
X25944915Y-46682713D01*
X25944914Y-46682713D01*
X25944913Y-46682712D01*
X25748207Y-46551278D01*
X25580922Y-46383993D01*
X25449488Y-46187287D01*
X25449487Y-46187285D01*
X25358953Y-45968718D01*
X25312800Y-45736690D01*
X25312800Y-45500110D01*
X25358953Y-45268082D01*
X25449487Y-45049515D01*
X25449488Y-45049513D01*
X25580922Y-44852807D01*
X25748207Y-44685522D01*
X25944913Y-44554088D01*
X25944915Y-44554087D01*
X26163482Y-44463553D01*
X26395510Y-44417400D01*
X26632090Y-44417400D01*
X26864118Y-44463553D01*
G37*
G36*
X64241152Y-40567011D02*
G01*
X64323227Y-40601008D01*
X64323229Y-40601009D01*
X64360413Y-40625855D01*
X64397095Y-40650365D01*
X64459915Y-40713185D01*
X64509272Y-40787053D01*
X64543269Y-40869128D01*
X64560600Y-40956259D01*
X64560600Y-41045101D01*
X64543269Y-41132232D01*
X64509272Y-41214307D01*
X64509271Y-41214309D01*
X64459914Y-41288176D01*
X64397096Y-41350994D01*
X64323229Y-41400351D01*
X64323228Y-41400352D01*
X64323227Y-41400352D01*
X64241152Y-41434349D01*
X64154021Y-41451680D01*
X64065179Y-41451680D01*
X63978048Y-41434349D01*
X63895973Y-41400352D01*
X63895972Y-41400352D01*
X63895971Y-41400351D01*
X63822104Y-41350994D01*
X63759286Y-41288176D01*
X63709929Y-41214309D01*
X63709928Y-41214307D01*
X63675931Y-41132232D01*
X63658600Y-41045101D01*
X63658600Y-40956259D01*
X63675931Y-40869128D01*
X63709928Y-40787053D01*
X63759285Y-40713185D01*
X63822105Y-40650365D01*
X63858787Y-40625855D01*
X63895971Y-40601009D01*
X63895973Y-40601008D01*
X63978048Y-40567011D01*
X64065179Y-40549680D01*
X64154021Y-40549680D01*
X64241152Y-40567011D01*
G37*
G36*
X40471272Y-37783618D02*
G01*
X40717139Y-37885459D01*
X40938412Y-38033310D01*
X41126590Y-38221488D01*
X41274441Y-38442761D01*
X41376282Y-38688628D01*
X41428200Y-38949638D01*
X41428200Y-39215762D01*
X41376282Y-39476772D01*
X41274441Y-39722639D01*
X41126590Y-39943912D01*
X40938412Y-40132090D01*
X40717139Y-40279941D01*
X40717138Y-40279942D01*
X40717137Y-40279942D01*
X40471272Y-40381782D01*
X40210263Y-40433700D01*
X39944137Y-40433700D01*
X39683128Y-40381782D01*
X39437263Y-40279942D01*
X39437262Y-40279942D01*
X39437261Y-40279941D01*
X39215988Y-40132090D01*
X39027810Y-39943912D01*
X38879959Y-39722639D01*
X38778118Y-39476772D01*
X38726200Y-39215762D01*
X38726200Y-38949638D01*
X38778118Y-38688628D01*
X38879959Y-38442761D01*
X39027810Y-38221488D01*
X39215988Y-38033310D01*
X39437261Y-37885459D01*
X39683128Y-37783618D01*
X39944137Y-37731700D01*
X40210263Y-37731700D01*
X40471272Y-37783618D01*
G37*
G36*
X64241152Y-35329531D02*
G01*
X64323227Y-35363528D01*
X64323229Y-35363529D01*
X64347791Y-35379941D01*
X64397095Y-35412885D01*
X64459915Y-35475705D01*
X64509272Y-35549573D01*
X64543269Y-35631648D01*
X64560600Y-35718779D01*
X64560600Y-35807621D01*
X64543269Y-35894752D01*
X64509272Y-35976827D01*
X64509271Y-35976829D01*
X64459914Y-36050696D01*
X64397096Y-36113514D01*
X64323229Y-36162871D01*
X64323228Y-36162872D01*
X64323227Y-36162872D01*
X64241152Y-36196869D01*
X64154021Y-36214200D01*
X64065179Y-36214200D01*
X63978048Y-36196869D01*
X63895973Y-36162872D01*
X63895972Y-36162872D01*
X63895971Y-36162871D01*
X63822104Y-36113514D01*
X63759286Y-36050696D01*
X63709929Y-35976829D01*
X63709928Y-35976827D01*
X63675931Y-35894752D01*
X63658600Y-35807621D01*
X63658600Y-35718779D01*
X63675931Y-35631648D01*
X63709928Y-35549573D01*
X63759285Y-35475705D01*
X63822105Y-35412885D01*
X63871409Y-35379941D01*
X63895971Y-35363529D01*
X63895973Y-35363528D01*
X63978048Y-35329531D01*
X64065179Y-35312200D01*
X64154021Y-35312200D01*
X64241152Y-35329531D01*
G37*
G36*
X40471272Y-32883618D02*
G01*
X40717139Y-32985459D01*
X40938412Y-33133310D01*
X41126590Y-33321488D01*
X41274441Y-33542761D01*
X41376282Y-33788628D01*
X41428200Y-34049638D01*
X41428200Y-34315762D01*
X41376282Y-34576772D01*
X41274441Y-34822639D01*
X41126590Y-35043912D01*
X40938412Y-35232090D01*
X40717139Y-35379941D01*
X40717138Y-35379942D01*
X40717137Y-35379942D01*
X40471272Y-35481782D01*
X40210263Y-35533700D01*
X39944137Y-35533700D01*
X39683128Y-35481782D01*
X39437263Y-35379942D01*
X39437262Y-35379942D01*
X39437261Y-35379941D01*
X39215988Y-35232090D01*
X39027810Y-35043912D01*
X38879959Y-34822639D01*
X38778118Y-34576772D01*
X38726200Y-34315762D01*
X38726200Y-34049638D01*
X38778118Y-33788628D01*
X38879959Y-33542761D01*
X39027810Y-33321488D01*
X39215988Y-33133310D01*
X39437261Y-32985459D01*
X39683128Y-32883618D01*
X39944137Y-32831700D01*
X40210263Y-32831700D01*
X40471272Y-32883618D01*
G37*
G36*
X41239954Y-27985590D02*
G01*
X41272032Y-27995321D01*
X41301595Y-28011123D01*
X41327510Y-28032390D01*
X41348777Y-28058305D01*
X41364579Y-28087868D01*
X41374310Y-28119946D01*
X41378200Y-28159448D01*
X41378200Y-30405952D01*
X41374310Y-30445454D01*
X41364579Y-30477532D01*
X41348777Y-30507095D01*
X41327510Y-30533010D01*
X41301595Y-30554277D01*
X41272032Y-30570079D01*
X41239954Y-30579810D01*
X41200452Y-30583700D01*
X38953948Y-30583700D01*
X38914446Y-30579810D01*
X38882368Y-30570079D01*
X38852805Y-30554277D01*
X38826890Y-30533010D01*
X38805623Y-30507095D01*
X38789821Y-30477532D01*
X38780090Y-30445454D01*
X38776200Y-30405952D01*
X38776200Y-28159448D01*
X38780090Y-28119946D01*
X38789821Y-28087868D01*
X38805623Y-28058305D01*
X38826890Y-28032390D01*
X38852805Y-28011123D01*
X38882368Y-27995321D01*
X38914446Y-27985590D01*
X38953948Y-27981700D01*
X41200452Y-27981700D01*
X41239954Y-27985590D01*
G37*
G36*
X66025474Y-27902090D02*
G01*
X66057552Y-27911821D01*
X66087115Y-27927623D01*
X66113030Y-27948890D01*
X66134297Y-27974805D01*
X66150099Y-28004368D01*
X66159830Y-28036446D01*
X66163720Y-28075948D01*
X66163720Y-30322452D01*
X66159830Y-30361954D01*
X66150099Y-30394032D01*
X66134297Y-30423595D01*
X66113030Y-30449510D01*
X66087115Y-30470777D01*
X66057552Y-30486579D01*
X66025474Y-30496310D01*
X65985972Y-30500200D01*
X63739468Y-30500200D01*
X63699966Y-30496310D01*
X63667888Y-30486579D01*
X63638325Y-30470777D01*
X63612410Y-30449510D01*
X63591143Y-30423595D01*
X63575341Y-30394032D01*
X63565610Y-30361954D01*
X63561720Y-30322452D01*
X63561720Y-28075948D01*
X63565610Y-28036446D01*
X63575341Y-28004368D01*
X63591143Y-27974805D01*
X63612410Y-27948890D01*
X63638325Y-27927623D01*
X63667888Y-27911821D01*
X63699966Y-27902090D01*
X63739468Y-27898200D01*
X65985972Y-27898200D01*
X66025474Y-27902090D01*
G37*
G36*
X65242207Y-22348196D02*
G01*
X65478973Y-22446268D01*
X65478975Y-22446269D01*
X65692059Y-22588647D01*
X65873273Y-22769861D01*
X66015652Y-22982947D01*
X66113724Y-23219713D01*
X66163720Y-23471061D01*
X66163720Y-23727339D01*
X66113724Y-23978687D01*
X66015652Y-24215453D01*
X66015651Y-24215455D01*
X65873273Y-24428539D01*
X65692059Y-24609753D01*
X65478975Y-24752131D01*
X65478974Y-24752132D01*
X65478973Y-24752132D01*
X65242207Y-24850204D01*
X64990859Y-24900200D01*
X64734581Y-24900200D01*
X64483233Y-24850204D01*
X64246467Y-24752132D01*
X64246466Y-24752132D01*
X64246465Y-24752131D01*
X64033381Y-24609753D01*
X63852167Y-24428539D01*
X63709789Y-24215455D01*
X63709788Y-24215453D01*
X63611716Y-23978687D01*
X63561720Y-23727339D01*
X63561720Y-23471061D01*
X63611716Y-23219713D01*
X63709788Y-22982947D01*
X63852167Y-22769861D01*
X64033381Y-22588647D01*
X64246465Y-22446269D01*
X64246467Y-22446268D01*
X64483233Y-22348196D01*
X64734581Y-22298200D01*
X64990859Y-22298200D01*
X65242207Y-22348196D01*
G37*
G36*
X37103103Y-16272275D02*
G01*
X37330771Y-16366578D01*
X37535666Y-16503485D01*
X37709915Y-16677734D01*
X37709916Y-16677736D01*
X37846823Y-16882631D01*
X37941125Y-17110297D01*
X37975421Y-17282712D01*
X37989200Y-17351987D01*
X37989200Y-17598413D01*
X37941125Y-17840103D01*
X37846822Y-18067771D01*
X37709915Y-18272666D01*
X37535666Y-18446915D01*
X37330771Y-18583822D01*
X37330770Y-18583823D01*
X37330769Y-18583823D01*
X37103103Y-18678125D01*
X36861414Y-18726200D01*
X36614986Y-18726200D01*
X36373297Y-18678125D01*
X36145631Y-18583823D01*
X36145630Y-18583823D01*
X36145629Y-18583822D01*
X35940734Y-18446915D01*
X35766485Y-18272666D01*
X35629578Y-18067771D01*
X35535275Y-17840103D01*
X35487200Y-17598413D01*
X35487200Y-17351987D01*
X35500980Y-17282712D01*
X35535275Y-17110297D01*
X35629577Y-16882631D01*
X35766484Y-16677736D01*
X35766485Y-16677734D01*
X35940734Y-16503485D01*
X36145629Y-16366578D01*
X36373297Y-16272275D01*
X36614986Y-16224200D01*
X36861414Y-16224200D01*
X37103103Y-16272275D01*
G37*
G36*
X42103103Y-16272275D02*
G01*
X42330771Y-16366578D01*
X42535666Y-16503485D01*
X42709915Y-16677734D01*
X42709916Y-16677736D01*
X42846823Y-16882631D01*
X42941125Y-17110297D01*
X42975421Y-17282712D01*
X42989200Y-17351987D01*
X42989200Y-17598413D01*
X42941125Y-17840103D01*
X42846822Y-18067771D01*
X42709915Y-18272666D01*
X42535666Y-18446915D01*
X42330771Y-18583822D01*
X42330770Y-18583823D01*
X42330769Y-18583823D01*
X42103103Y-18678125D01*
X41861414Y-18726200D01*
X41614986Y-18726200D01*
X41373297Y-18678125D01*
X41145631Y-18583823D01*
X41145630Y-18583823D01*
X41145629Y-18583822D01*
X40940734Y-18446915D01*
X40766485Y-18272666D01*
X40629578Y-18067771D01*
X40535275Y-17840103D01*
X40487200Y-17598413D01*
X40487200Y-17351987D01*
X40500980Y-17282712D01*
X40535275Y-17110297D01*
X40629577Y-16882631D01*
X40766484Y-16677736D01*
X40766485Y-16677734D01*
X40940734Y-16503485D01*
X41145629Y-16366578D01*
X41373297Y-16272275D01*
X41614986Y-16224200D01*
X41861414Y-16224200D01*
X42103103Y-16272275D01*
G37*
G36*
X47103103Y-16272275D02*
G01*
X47330771Y-16366578D01*
X47535666Y-16503485D01*
X47709915Y-16677734D01*
X47709916Y-16677736D01*
X47846823Y-16882631D01*
X47941125Y-17110297D01*
X47975421Y-17282712D01*
X47989200Y-17351987D01*
X47989200Y-17598413D01*
X47941125Y-17840103D01*
X47846822Y-18067771D01*
X47709915Y-18272666D01*
X47535666Y-18446915D01*
X47330771Y-18583822D01*
X47330770Y-18583823D01*
X47330769Y-18583823D01*
X47103103Y-18678125D01*
X46861414Y-18726200D01*
X46614986Y-18726200D01*
X46373297Y-18678125D01*
X46145631Y-18583823D01*
X46145630Y-18583823D01*
X46145629Y-18583822D01*
X45940734Y-18446915D01*
X45766485Y-18272666D01*
X45629578Y-18067771D01*
X45535275Y-17840103D01*
X45487200Y-17598413D01*
X45487200Y-17351987D01*
X45500980Y-17282712D01*
X45535275Y-17110297D01*
X45629577Y-16882631D01*
X45766484Y-16677736D01*
X45766485Y-16677734D01*
X45940734Y-16503485D01*
X46145629Y-16366578D01*
X46373297Y-16272275D01*
X46614986Y-16224200D01*
X46861414Y-16224200D01*
X47103103Y-16272275D01*
G37*
G36*
X69553200Y-18581320D02*
G01*
X67251200Y-18581320D01*
X67251200Y-17229320D01*
X69553200Y-17229320D01*
X69553200Y-18581320D01*
G37*
G36*
X59039200Y-18526200D02*
G01*
X56937200Y-18526200D01*
X56937200Y-16424200D01*
X59039200Y-16424200D01*
X59039200Y-18526200D01*
G37*
G36*
X62044764Y-16464589D02*
G01*
X62236033Y-16543815D01*
X62236035Y-16543816D01*
X62273303Y-16568718D01*
X62408173Y-16658835D01*
X62554565Y-16805227D01*
X62669585Y-16977367D01*
X62748811Y-17168636D01*
X62789200Y-17371684D01*
X62789200Y-17578716D01*
X62748811Y-17781764D01*
X62724646Y-17840103D01*
X62669584Y-17973035D01*
X62554565Y-18145173D01*
X62408173Y-18291565D01*
X62236035Y-18406584D01*
X62236034Y-18406585D01*
X62236033Y-18406585D01*
X62044764Y-18485811D01*
X61841716Y-18526200D01*
X61634684Y-18526200D01*
X61431636Y-18485811D01*
X61240367Y-18406585D01*
X61240366Y-18406585D01*
X61240365Y-18406584D01*
X61068227Y-18291565D01*
X60921835Y-18145173D01*
X60806816Y-17973035D01*
X60751754Y-17840103D01*
X60727589Y-17781764D01*
X60687200Y-17578716D01*
X60687200Y-17371684D01*
X60727589Y-17168636D01*
X60806815Y-16977367D01*
X60921835Y-16805227D01*
X61068227Y-16658835D01*
X61203097Y-16568718D01*
X61240365Y-16543816D01*
X61240367Y-16543815D01*
X61431636Y-16464589D01*
X61634684Y-16424200D01*
X61841716Y-16424200D01*
X62044764Y-16464589D01*
G37*
G36*
X16664118Y-15063553D02*
G01*
X16882685Y-15154087D01*
X16882687Y-15154088D01*
X17079393Y-15285522D01*
X17246678Y-15452807D01*
X17378112Y-15649513D01*
X17378113Y-15649515D01*
X17468647Y-15868082D01*
X17514800Y-16100110D01*
X17514800Y-16336690D01*
X17468647Y-16568718D01*
X17423490Y-16677736D01*
X17378112Y-16787287D01*
X17246678Y-16983993D01*
X17079393Y-17151278D01*
X16882687Y-17282712D01*
X16882686Y-17282713D01*
X16882685Y-17282713D01*
X16664118Y-17373247D01*
X16432090Y-17419400D01*
X16195510Y-17419400D01*
X15963482Y-17373247D01*
X15744915Y-17282713D01*
X15744914Y-17282713D01*
X15744913Y-17282712D01*
X15548207Y-17151278D01*
X15380922Y-16983993D01*
X15249488Y-16787287D01*
X15204110Y-16677736D01*
X15158953Y-16568718D01*
X15112800Y-16336690D01*
X15112800Y-16100110D01*
X15158953Y-15868082D01*
X15249487Y-15649515D01*
X15249488Y-15649513D01*
X15380922Y-15452807D01*
X15548207Y-15285522D01*
X15744913Y-15154088D01*
X15744915Y-15154087D01*
X15963482Y-15063553D01*
X16195510Y-15017400D01*
X16432090Y-15017400D01*
X16664118Y-15063553D01*
G37*
G36*
X32064118Y-15063553D02*
G01*
X32282685Y-15154087D01*
X32282687Y-15154088D01*
X32479393Y-15285522D01*
X32646678Y-15452807D01*
X32778112Y-15649513D01*
X32778113Y-15649515D01*
X32868647Y-15868082D01*
X32914800Y-16100110D01*
X32914800Y-16336690D01*
X32868647Y-16568718D01*
X32823490Y-16677736D01*
X32778112Y-16787287D01*
X32646678Y-16983993D01*
X32479393Y-17151278D01*
X32282687Y-17282712D01*
X32282686Y-17282713D01*
X32282685Y-17282713D01*
X32064118Y-17373247D01*
X31832090Y-17419400D01*
X31595510Y-17419400D01*
X31363482Y-17373247D01*
X31144915Y-17282713D01*
X31144914Y-17282713D01*
X31144913Y-17282712D01*
X30948207Y-17151278D01*
X30780922Y-16983993D01*
X30649488Y-16787287D01*
X30604110Y-16677736D01*
X30558953Y-16568718D01*
X30512800Y-16336690D01*
X30512800Y-16100110D01*
X30558953Y-15868082D01*
X30649487Y-15649515D01*
X30649488Y-15649513D01*
X30780922Y-15452807D01*
X30948207Y-15285522D01*
X31144913Y-15154088D01*
X31144915Y-15154087D01*
X31363482Y-15063553D01*
X31595510Y-15017400D01*
X31832090Y-15017400D01*
X32064118Y-15063553D01*
G37*
G36*
X69553200Y-16781320D02*
G01*
X67251200Y-16781320D01*
X67251200Y-14479320D01*
X69553200Y-14479320D01*
X69553200Y-16781320D01*
G37*
M02*
