G04 #@! TF.GenerationSoftware,KiCad,Pcbnew,(5.1.5)-3*
G04 #@! TF.CreationDate,2020-09-11T10:44:40-03:00*
G04 #@! TF.ProjectId,HomeTron(kicad),486f6d65-5472-46f6-9e28-6b6963616429,rev?*
G04 #@! TF.SameCoordinates,Original*
G04 #@! TF.FileFunction,Copper,L2,Bot*
G04 #@! TF.FilePolarity,Positive*
%FSLAX46Y46*%
G04 Gerber Fmt 4.6, Leading zero omitted, Abs format (unit mm)*
G04 Created by KiCad (PCBNEW (5.1.5)-3) date 2020-09-11 10:44:40*
%MOMM*%
%LPD*%
G04 APERTURE LIST*
%ADD10R,1.700000X0.900000*%
%ADD11R,1.600000X1.600000*%
%ADD12C,0.100000*%
%ADD13C,1.500000*%
%ADD14O,1.870000X1.170000*%
%ADD15R,2.000000X3.000000*%
%ADD16R,2.000000X0.750000*%
%ADD17R,1.000000X2.500000*%
%ADD18R,1.800000X1.000000*%
%ADD19R,0.800000X0.900000*%
%ADD20C,2.300000*%
%ADD21R,2.000000X2.300000*%
%ADD22C,2.000000*%
%ADD23R,2.000000X2.000000*%
%ADD24C,2.400000*%
%ADD25C,2.500000*%
%ADD26C,2.600000*%
%ADD27R,0.700000X1.000000*%
%ADD28C,0.800000*%
%ADD29C,0.500000*%
%ADD30C,1.000000*%
G04 APERTURE END LIST*
D10*
X64109600Y-37463200D03*
X64109600Y-34063200D03*
X64109600Y-39300680D03*
X64109600Y-42700680D03*
D11*
X37020500Y-20853400D03*
X44640500Y-25933400D03*
X37020500Y-23393400D03*
X44640500Y-23393400D03*
X37020500Y-25933400D03*
X44640500Y-20853400D03*
G04 #@! TA.AperFunction,ComponentPad*
D12*
G36*
X32578591Y-58713951D02*
G01*
X32593734Y-58716197D01*
X32608584Y-58719917D01*
X32622999Y-58725075D01*
X32636838Y-58731620D01*
X32649969Y-58739491D01*
X32662265Y-58748610D01*
X32673609Y-58758891D01*
X32683890Y-58770235D01*
X32693009Y-58782531D01*
X32700880Y-58795662D01*
X32707425Y-58809501D01*
X32712583Y-58823916D01*
X32716303Y-58838766D01*
X32718549Y-58853909D01*
X32719300Y-58869200D01*
X32719300Y-60057200D01*
X32718549Y-60072491D01*
X32716303Y-60087634D01*
X32712583Y-60102484D01*
X32707425Y-60116899D01*
X32700880Y-60130738D01*
X32693009Y-60143869D01*
X32683890Y-60156165D01*
X32673609Y-60167509D01*
X32662265Y-60177790D01*
X32649969Y-60186909D01*
X32636838Y-60194780D01*
X32622999Y-60201325D01*
X32608584Y-60206483D01*
X32593734Y-60210203D01*
X32578591Y-60212449D01*
X32563300Y-60213200D01*
X31375300Y-60213200D01*
X31360009Y-60212449D01*
X31344866Y-60210203D01*
X31330016Y-60206483D01*
X31315601Y-60201325D01*
X31301762Y-60194780D01*
X31288631Y-60186909D01*
X31276335Y-60177790D01*
X31264991Y-60167509D01*
X31254710Y-60156165D01*
X31245591Y-60143869D01*
X31237720Y-60130738D01*
X31231175Y-60116899D01*
X31226017Y-60102484D01*
X31222297Y-60087634D01*
X31220051Y-60072491D01*
X31219300Y-60057200D01*
X31219300Y-58869200D01*
X31220051Y-58853909D01*
X31222297Y-58838766D01*
X31226017Y-58823916D01*
X31231175Y-58809501D01*
X31237720Y-58795662D01*
X31245591Y-58782531D01*
X31254710Y-58770235D01*
X31264991Y-58758891D01*
X31276335Y-58748610D01*
X31288631Y-58739491D01*
X31301762Y-58731620D01*
X31315601Y-58725075D01*
X31330016Y-58719917D01*
X31344866Y-58716197D01*
X31360009Y-58713951D01*
X31375300Y-58713200D01*
X32563300Y-58713200D01*
X32578591Y-58713951D01*
G37*
G04 #@! TD.AperFunction*
D13*
X29479300Y-59463200D03*
X26989300Y-59463200D03*
G04 #@! TA.AperFunction,ComponentPad*
D12*
G36*
X68006462Y-59449106D02*
G01*
X68030767Y-59452711D01*
X68054601Y-59458681D01*
X68077736Y-59466959D01*
X68099948Y-59477465D01*
X68121024Y-59490097D01*
X68140759Y-59504734D01*
X68158965Y-59521235D01*
X68175466Y-59539441D01*
X68190103Y-59559176D01*
X68202735Y-59580252D01*
X68213241Y-59602464D01*
X68221519Y-59625599D01*
X68227489Y-59649433D01*
X68231094Y-59673738D01*
X68232300Y-59698280D01*
X68232300Y-60367520D01*
X68231094Y-60392062D01*
X68227489Y-60416367D01*
X68221519Y-60440201D01*
X68213241Y-60463336D01*
X68202735Y-60485548D01*
X68190103Y-60506624D01*
X68175466Y-60526359D01*
X68158965Y-60544565D01*
X68140759Y-60561066D01*
X68121024Y-60575703D01*
X68099948Y-60588335D01*
X68077736Y-60598841D01*
X68054601Y-60607119D01*
X68030767Y-60613089D01*
X68006462Y-60616694D01*
X67981920Y-60617900D01*
X66612680Y-60617900D01*
X66588138Y-60616694D01*
X66563833Y-60613089D01*
X66539999Y-60607119D01*
X66516864Y-60598841D01*
X66494652Y-60588335D01*
X66473576Y-60575703D01*
X66453841Y-60561066D01*
X66435635Y-60544565D01*
X66419134Y-60526359D01*
X66404497Y-60506624D01*
X66391865Y-60485548D01*
X66381359Y-60463336D01*
X66373081Y-60440201D01*
X66367111Y-60416367D01*
X66363506Y-60392062D01*
X66362300Y-60367520D01*
X66362300Y-59698280D01*
X66363506Y-59673738D01*
X66367111Y-59649433D01*
X66373081Y-59625599D01*
X66381359Y-59602464D01*
X66391865Y-59580252D01*
X66404497Y-59559176D01*
X66419134Y-59539441D01*
X66435635Y-59521235D01*
X66453841Y-59504734D01*
X66473576Y-59490097D01*
X66494652Y-59477465D01*
X66516864Y-59466959D01*
X66539999Y-59458681D01*
X66563833Y-59452711D01*
X66588138Y-59449106D01*
X66612680Y-59447900D01*
X67981920Y-59447900D01*
X68006462Y-59449106D01*
G37*
G04 #@! TD.AperFunction*
D14*
X67297300Y-57492900D03*
X67297300Y-54952900D03*
X67297300Y-52412900D03*
X67297300Y-49872900D03*
X67297300Y-47332900D03*
D15*
X29448000Y-24296300D03*
D16*
X23998000Y-21996300D03*
X23998000Y-24296300D03*
X23998000Y-26596300D03*
D17*
X51290100Y-44279500D03*
X49290100Y-44279500D03*
X47290100Y-44279500D03*
X45290100Y-44279500D03*
X43290100Y-44279500D03*
X41290100Y-44279500D03*
X39290100Y-44279500D03*
X37290100Y-44279500D03*
D18*
X35790100Y-46879500D03*
X35790100Y-48879500D03*
X35790100Y-50879500D03*
X35790100Y-52879500D03*
X35790100Y-54879500D03*
X35790100Y-56879500D03*
D17*
X37290100Y-59479500D03*
X39290100Y-59479500D03*
X41290100Y-59479500D03*
X43290100Y-59479500D03*
X45290100Y-59479500D03*
X47290100Y-59479500D03*
X49290100Y-59479500D03*
X51290100Y-59479500D03*
G04 #@! TA.AperFunction,SMDPad,CuDef*
D12*
G36*
X61534742Y-48920074D02*
G01*
X61558403Y-48923584D01*
X61581607Y-48929396D01*
X61604129Y-48937454D01*
X61625753Y-48947682D01*
X61646270Y-48959979D01*
X61665483Y-48974229D01*
X61683207Y-48990293D01*
X61699271Y-49008017D01*
X61713521Y-49027230D01*
X61725818Y-49047747D01*
X61736046Y-49069371D01*
X61744104Y-49091893D01*
X61749916Y-49115097D01*
X61753426Y-49138758D01*
X61754600Y-49162650D01*
X61754600Y-50075150D01*
X61753426Y-50099042D01*
X61749916Y-50122703D01*
X61744104Y-50145907D01*
X61736046Y-50168429D01*
X61725818Y-50190053D01*
X61713521Y-50210570D01*
X61699271Y-50229783D01*
X61683207Y-50247507D01*
X61665483Y-50263571D01*
X61646270Y-50277821D01*
X61625753Y-50290118D01*
X61604129Y-50300346D01*
X61581607Y-50308404D01*
X61558403Y-50314216D01*
X61534742Y-50317726D01*
X61510850Y-50318900D01*
X61023350Y-50318900D01*
X60999458Y-50317726D01*
X60975797Y-50314216D01*
X60952593Y-50308404D01*
X60930071Y-50300346D01*
X60908447Y-50290118D01*
X60887930Y-50277821D01*
X60868717Y-50263571D01*
X60850993Y-50247507D01*
X60834929Y-50229783D01*
X60820679Y-50210570D01*
X60808382Y-50190053D01*
X60798154Y-50168429D01*
X60790096Y-50145907D01*
X60784284Y-50122703D01*
X60780774Y-50099042D01*
X60779600Y-50075150D01*
X60779600Y-49162650D01*
X60780774Y-49138758D01*
X60784284Y-49115097D01*
X60790096Y-49091893D01*
X60798154Y-49069371D01*
X60808382Y-49047747D01*
X60820679Y-49027230D01*
X60834929Y-49008017D01*
X60850993Y-48990293D01*
X60868717Y-48974229D01*
X60887930Y-48959979D01*
X60908447Y-48947682D01*
X60930071Y-48937454D01*
X60952593Y-48929396D01*
X60975797Y-48923584D01*
X60999458Y-48920074D01*
X61023350Y-48918900D01*
X61510850Y-48918900D01*
X61534742Y-48920074D01*
G37*
G04 #@! TD.AperFunction*
G04 #@! TA.AperFunction,SMDPad,CuDef*
G36*
X63409742Y-48920074D02*
G01*
X63433403Y-48923584D01*
X63456607Y-48929396D01*
X63479129Y-48937454D01*
X63500753Y-48947682D01*
X63521270Y-48959979D01*
X63540483Y-48974229D01*
X63558207Y-48990293D01*
X63574271Y-49008017D01*
X63588521Y-49027230D01*
X63600818Y-49047747D01*
X63611046Y-49069371D01*
X63619104Y-49091893D01*
X63624916Y-49115097D01*
X63628426Y-49138758D01*
X63629600Y-49162650D01*
X63629600Y-50075150D01*
X63628426Y-50099042D01*
X63624916Y-50122703D01*
X63619104Y-50145907D01*
X63611046Y-50168429D01*
X63600818Y-50190053D01*
X63588521Y-50210570D01*
X63574271Y-50229783D01*
X63558207Y-50247507D01*
X63540483Y-50263571D01*
X63521270Y-50277821D01*
X63500753Y-50290118D01*
X63479129Y-50300346D01*
X63456607Y-50308404D01*
X63433403Y-50314216D01*
X63409742Y-50317726D01*
X63385850Y-50318900D01*
X62898350Y-50318900D01*
X62874458Y-50317726D01*
X62850797Y-50314216D01*
X62827593Y-50308404D01*
X62805071Y-50300346D01*
X62783447Y-50290118D01*
X62762930Y-50277821D01*
X62743717Y-50263571D01*
X62725993Y-50247507D01*
X62709929Y-50229783D01*
X62695679Y-50210570D01*
X62683382Y-50190053D01*
X62673154Y-50168429D01*
X62665096Y-50145907D01*
X62659284Y-50122703D01*
X62655774Y-50099042D01*
X62654600Y-50075150D01*
X62654600Y-49162650D01*
X62655774Y-49138758D01*
X62659284Y-49115097D01*
X62665096Y-49091893D01*
X62673154Y-49069371D01*
X62683382Y-49047747D01*
X62695679Y-49027230D01*
X62709929Y-49008017D01*
X62725993Y-48990293D01*
X62743717Y-48974229D01*
X62762930Y-48959979D01*
X62783447Y-48947682D01*
X62805071Y-48937454D01*
X62827593Y-48929396D01*
X62850797Y-48923584D01*
X62874458Y-48920074D01*
X62898350Y-48918900D01*
X63385850Y-48918900D01*
X63409742Y-48920074D01*
G37*
G04 #@! TD.AperFunction*
G04 #@! TA.AperFunction,SMDPad,CuDef*
G36*
X46231242Y-28295274D02*
G01*
X46254903Y-28298784D01*
X46278107Y-28304596D01*
X46300629Y-28312654D01*
X46322253Y-28322882D01*
X46342770Y-28335179D01*
X46361983Y-28349429D01*
X46379707Y-28365493D01*
X46395771Y-28383217D01*
X46410021Y-28402430D01*
X46422318Y-28422947D01*
X46432546Y-28444571D01*
X46440604Y-28467093D01*
X46446416Y-28490297D01*
X46449926Y-28513958D01*
X46451100Y-28537850D01*
X46451100Y-29450350D01*
X46449926Y-29474242D01*
X46446416Y-29497903D01*
X46440604Y-29521107D01*
X46432546Y-29543629D01*
X46422318Y-29565253D01*
X46410021Y-29585770D01*
X46395771Y-29604983D01*
X46379707Y-29622707D01*
X46361983Y-29638771D01*
X46342770Y-29653021D01*
X46322253Y-29665318D01*
X46300629Y-29675546D01*
X46278107Y-29683604D01*
X46254903Y-29689416D01*
X46231242Y-29692926D01*
X46207350Y-29694100D01*
X45719850Y-29694100D01*
X45695958Y-29692926D01*
X45672297Y-29689416D01*
X45649093Y-29683604D01*
X45626571Y-29675546D01*
X45604947Y-29665318D01*
X45584430Y-29653021D01*
X45565217Y-29638771D01*
X45547493Y-29622707D01*
X45531429Y-29604983D01*
X45517179Y-29585770D01*
X45504882Y-29565253D01*
X45494654Y-29543629D01*
X45486596Y-29521107D01*
X45480784Y-29497903D01*
X45477274Y-29474242D01*
X45476100Y-29450350D01*
X45476100Y-28537850D01*
X45477274Y-28513958D01*
X45480784Y-28490297D01*
X45486596Y-28467093D01*
X45494654Y-28444571D01*
X45504882Y-28422947D01*
X45517179Y-28402430D01*
X45531429Y-28383217D01*
X45547493Y-28365493D01*
X45565217Y-28349429D01*
X45584430Y-28335179D01*
X45604947Y-28322882D01*
X45626571Y-28312654D01*
X45649093Y-28304596D01*
X45672297Y-28298784D01*
X45695958Y-28295274D01*
X45719850Y-28294100D01*
X46207350Y-28294100D01*
X46231242Y-28295274D01*
G37*
G04 #@! TD.AperFunction*
G04 #@! TA.AperFunction,SMDPad,CuDef*
G36*
X48106242Y-28295274D02*
G01*
X48129903Y-28298784D01*
X48153107Y-28304596D01*
X48175629Y-28312654D01*
X48197253Y-28322882D01*
X48217770Y-28335179D01*
X48236983Y-28349429D01*
X48254707Y-28365493D01*
X48270771Y-28383217D01*
X48285021Y-28402430D01*
X48297318Y-28422947D01*
X48307546Y-28444571D01*
X48315604Y-28467093D01*
X48321416Y-28490297D01*
X48324926Y-28513958D01*
X48326100Y-28537850D01*
X48326100Y-29450350D01*
X48324926Y-29474242D01*
X48321416Y-29497903D01*
X48315604Y-29521107D01*
X48307546Y-29543629D01*
X48297318Y-29565253D01*
X48285021Y-29585770D01*
X48270771Y-29604983D01*
X48254707Y-29622707D01*
X48236983Y-29638771D01*
X48217770Y-29653021D01*
X48197253Y-29665318D01*
X48175629Y-29675546D01*
X48153107Y-29683604D01*
X48129903Y-29689416D01*
X48106242Y-29692926D01*
X48082350Y-29694100D01*
X47594850Y-29694100D01*
X47570958Y-29692926D01*
X47547297Y-29689416D01*
X47524093Y-29683604D01*
X47501571Y-29675546D01*
X47479947Y-29665318D01*
X47459430Y-29653021D01*
X47440217Y-29638771D01*
X47422493Y-29622707D01*
X47406429Y-29604983D01*
X47392179Y-29585770D01*
X47379882Y-29565253D01*
X47369654Y-29543629D01*
X47361596Y-29521107D01*
X47355784Y-29497903D01*
X47352274Y-29474242D01*
X47351100Y-29450350D01*
X47351100Y-28537850D01*
X47352274Y-28513958D01*
X47355784Y-28490297D01*
X47361596Y-28467093D01*
X47369654Y-28444571D01*
X47379882Y-28422947D01*
X47392179Y-28402430D01*
X47406429Y-28383217D01*
X47422493Y-28365493D01*
X47440217Y-28349429D01*
X47459430Y-28335179D01*
X47479947Y-28322882D01*
X47501571Y-28312654D01*
X47524093Y-28304596D01*
X47547297Y-28298784D01*
X47570958Y-28295274D01*
X47594850Y-28294100D01*
X48082350Y-28294100D01*
X48106242Y-28295274D01*
G37*
G04 #@! TD.AperFunction*
G04 #@! TA.AperFunction,SMDPad,CuDef*
G36*
X65060262Y-19387494D02*
G01*
X65083923Y-19391004D01*
X65107127Y-19396816D01*
X65129649Y-19404874D01*
X65151273Y-19415102D01*
X65171790Y-19427399D01*
X65191003Y-19441649D01*
X65208727Y-19457713D01*
X65224791Y-19475437D01*
X65239041Y-19494650D01*
X65251338Y-19515167D01*
X65261566Y-19536791D01*
X65269624Y-19559313D01*
X65275436Y-19582517D01*
X65278946Y-19606178D01*
X65280120Y-19630070D01*
X65280120Y-20542570D01*
X65278946Y-20566462D01*
X65275436Y-20590123D01*
X65269624Y-20613327D01*
X65261566Y-20635849D01*
X65251338Y-20657473D01*
X65239041Y-20677990D01*
X65224791Y-20697203D01*
X65208727Y-20714927D01*
X65191003Y-20730991D01*
X65171790Y-20745241D01*
X65151273Y-20757538D01*
X65129649Y-20767766D01*
X65107127Y-20775824D01*
X65083923Y-20781636D01*
X65060262Y-20785146D01*
X65036370Y-20786320D01*
X64548870Y-20786320D01*
X64524978Y-20785146D01*
X64501317Y-20781636D01*
X64478113Y-20775824D01*
X64455591Y-20767766D01*
X64433967Y-20757538D01*
X64413450Y-20745241D01*
X64394237Y-20730991D01*
X64376513Y-20714927D01*
X64360449Y-20697203D01*
X64346199Y-20677990D01*
X64333902Y-20657473D01*
X64323674Y-20635849D01*
X64315616Y-20613327D01*
X64309804Y-20590123D01*
X64306294Y-20566462D01*
X64305120Y-20542570D01*
X64305120Y-19630070D01*
X64306294Y-19606178D01*
X64309804Y-19582517D01*
X64315616Y-19559313D01*
X64323674Y-19536791D01*
X64333902Y-19515167D01*
X64346199Y-19494650D01*
X64360449Y-19475437D01*
X64376513Y-19457713D01*
X64394237Y-19441649D01*
X64413450Y-19427399D01*
X64433967Y-19415102D01*
X64455591Y-19404874D01*
X64478113Y-19396816D01*
X64501317Y-19391004D01*
X64524978Y-19387494D01*
X64548870Y-19386320D01*
X65036370Y-19386320D01*
X65060262Y-19387494D01*
G37*
G04 #@! TD.AperFunction*
G04 #@! TA.AperFunction,SMDPad,CuDef*
G36*
X66935262Y-19387494D02*
G01*
X66958923Y-19391004D01*
X66982127Y-19396816D01*
X67004649Y-19404874D01*
X67026273Y-19415102D01*
X67046790Y-19427399D01*
X67066003Y-19441649D01*
X67083727Y-19457713D01*
X67099791Y-19475437D01*
X67114041Y-19494650D01*
X67126338Y-19515167D01*
X67136566Y-19536791D01*
X67144624Y-19559313D01*
X67150436Y-19582517D01*
X67153946Y-19606178D01*
X67155120Y-19630070D01*
X67155120Y-20542570D01*
X67153946Y-20566462D01*
X67150436Y-20590123D01*
X67144624Y-20613327D01*
X67136566Y-20635849D01*
X67126338Y-20657473D01*
X67114041Y-20677990D01*
X67099791Y-20697203D01*
X67083727Y-20714927D01*
X67066003Y-20730991D01*
X67046790Y-20745241D01*
X67026273Y-20757538D01*
X67004649Y-20767766D01*
X66982127Y-20775824D01*
X66958923Y-20781636D01*
X66935262Y-20785146D01*
X66911370Y-20786320D01*
X66423870Y-20786320D01*
X66399978Y-20785146D01*
X66376317Y-20781636D01*
X66353113Y-20775824D01*
X66330591Y-20767766D01*
X66308967Y-20757538D01*
X66288450Y-20745241D01*
X66269237Y-20730991D01*
X66251513Y-20714927D01*
X66235449Y-20697203D01*
X66221199Y-20677990D01*
X66208902Y-20657473D01*
X66198674Y-20635849D01*
X66190616Y-20613327D01*
X66184804Y-20590123D01*
X66181294Y-20566462D01*
X66180120Y-20542570D01*
X66180120Y-19630070D01*
X66181294Y-19606178D01*
X66184804Y-19582517D01*
X66190616Y-19559313D01*
X66198674Y-19536791D01*
X66208902Y-19515167D01*
X66221199Y-19494650D01*
X66235449Y-19475437D01*
X66251513Y-19457713D01*
X66269237Y-19441649D01*
X66288450Y-19427399D01*
X66308967Y-19415102D01*
X66330591Y-19404874D01*
X66353113Y-19396816D01*
X66376317Y-19391004D01*
X66399978Y-19387494D01*
X66423870Y-19386320D01*
X66911370Y-19386320D01*
X66935262Y-19387494D01*
G37*
G04 #@! TD.AperFunction*
G04 #@! TA.AperFunction,SMDPad,CuDef*
G36*
X63409742Y-51079074D02*
G01*
X63433403Y-51082584D01*
X63456607Y-51088396D01*
X63479129Y-51096454D01*
X63500753Y-51106682D01*
X63521270Y-51118979D01*
X63540483Y-51133229D01*
X63558207Y-51149293D01*
X63574271Y-51167017D01*
X63588521Y-51186230D01*
X63600818Y-51206747D01*
X63611046Y-51228371D01*
X63619104Y-51250893D01*
X63624916Y-51274097D01*
X63628426Y-51297758D01*
X63629600Y-51321650D01*
X63629600Y-52234150D01*
X63628426Y-52258042D01*
X63624916Y-52281703D01*
X63619104Y-52304907D01*
X63611046Y-52327429D01*
X63600818Y-52349053D01*
X63588521Y-52369570D01*
X63574271Y-52388783D01*
X63558207Y-52406507D01*
X63540483Y-52422571D01*
X63521270Y-52436821D01*
X63500753Y-52449118D01*
X63479129Y-52459346D01*
X63456607Y-52467404D01*
X63433403Y-52473216D01*
X63409742Y-52476726D01*
X63385850Y-52477900D01*
X62898350Y-52477900D01*
X62874458Y-52476726D01*
X62850797Y-52473216D01*
X62827593Y-52467404D01*
X62805071Y-52459346D01*
X62783447Y-52449118D01*
X62762930Y-52436821D01*
X62743717Y-52422571D01*
X62725993Y-52406507D01*
X62709929Y-52388783D01*
X62695679Y-52369570D01*
X62683382Y-52349053D01*
X62673154Y-52327429D01*
X62665096Y-52304907D01*
X62659284Y-52281703D01*
X62655774Y-52258042D01*
X62654600Y-52234150D01*
X62654600Y-51321650D01*
X62655774Y-51297758D01*
X62659284Y-51274097D01*
X62665096Y-51250893D01*
X62673154Y-51228371D01*
X62683382Y-51206747D01*
X62695679Y-51186230D01*
X62709929Y-51167017D01*
X62725993Y-51149293D01*
X62743717Y-51133229D01*
X62762930Y-51118979D01*
X62783447Y-51106682D01*
X62805071Y-51096454D01*
X62827593Y-51088396D01*
X62850797Y-51082584D01*
X62874458Y-51079074D01*
X62898350Y-51077900D01*
X63385850Y-51077900D01*
X63409742Y-51079074D01*
G37*
G04 #@! TD.AperFunction*
G04 #@! TA.AperFunction,SMDPad,CuDef*
G36*
X61534742Y-51079074D02*
G01*
X61558403Y-51082584D01*
X61581607Y-51088396D01*
X61604129Y-51096454D01*
X61625753Y-51106682D01*
X61646270Y-51118979D01*
X61665483Y-51133229D01*
X61683207Y-51149293D01*
X61699271Y-51167017D01*
X61713521Y-51186230D01*
X61725818Y-51206747D01*
X61736046Y-51228371D01*
X61744104Y-51250893D01*
X61749916Y-51274097D01*
X61753426Y-51297758D01*
X61754600Y-51321650D01*
X61754600Y-52234150D01*
X61753426Y-52258042D01*
X61749916Y-52281703D01*
X61744104Y-52304907D01*
X61736046Y-52327429D01*
X61725818Y-52349053D01*
X61713521Y-52369570D01*
X61699271Y-52388783D01*
X61683207Y-52406507D01*
X61665483Y-52422571D01*
X61646270Y-52436821D01*
X61625753Y-52449118D01*
X61604129Y-52459346D01*
X61581607Y-52467404D01*
X61558403Y-52473216D01*
X61534742Y-52476726D01*
X61510850Y-52477900D01*
X61023350Y-52477900D01*
X60999458Y-52476726D01*
X60975797Y-52473216D01*
X60952593Y-52467404D01*
X60930071Y-52459346D01*
X60908447Y-52449118D01*
X60887930Y-52436821D01*
X60868717Y-52422571D01*
X60850993Y-52406507D01*
X60834929Y-52388783D01*
X60820679Y-52369570D01*
X60808382Y-52349053D01*
X60798154Y-52327429D01*
X60790096Y-52304907D01*
X60784284Y-52281703D01*
X60780774Y-52258042D01*
X60779600Y-52234150D01*
X60779600Y-51321650D01*
X60780774Y-51297758D01*
X60784284Y-51274097D01*
X60790096Y-51250893D01*
X60798154Y-51228371D01*
X60808382Y-51206747D01*
X60820679Y-51186230D01*
X60834929Y-51167017D01*
X60850993Y-51149293D01*
X60868717Y-51133229D01*
X60887930Y-51118979D01*
X60908447Y-51106682D01*
X60930071Y-51096454D01*
X60952593Y-51088396D01*
X60975797Y-51082584D01*
X60999458Y-51079074D01*
X61023350Y-51077900D01*
X61510850Y-51077900D01*
X61534742Y-51079074D01*
G37*
G04 #@! TD.AperFunction*
G04 #@! TA.AperFunction,SMDPad,CuDef*
G36*
X31607842Y-52406874D02*
G01*
X31631503Y-52410384D01*
X31654707Y-52416196D01*
X31677229Y-52424254D01*
X31698853Y-52434482D01*
X31719370Y-52446779D01*
X31738583Y-52461029D01*
X31756307Y-52477093D01*
X31772371Y-52494817D01*
X31786621Y-52514030D01*
X31798918Y-52534547D01*
X31809146Y-52556171D01*
X31817204Y-52578693D01*
X31823016Y-52601897D01*
X31826526Y-52625558D01*
X31827700Y-52649450D01*
X31827700Y-53136950D01*
X31826526Y-53160842D01*
X31823016Y-53184503D01*
X31817204Y-53207707D01*
X31809146Y-53230229D01*
X31798918Y-53251853D01*
X31786621Y-53272370D01*
X31772371Y-53291583D01*
X31756307Y-53309307D01*
X31738583Y-53325371D01*
X31719370Y-53339621D01*
X31698853Y-53351918D01*
X31677229Y-53362146D01*
X31654707Y-53370204D01*
X31631503Y-53376016D01*
X31607842Y-53379526D01*
X31583950Y-53380700D01*
X30671450Y-53380700D01*
X30647558Y-53379526D01*
X30623897Y-53376016D01*
X30600693Y-53370204D01*
X30578171Y-53362146D01*
X30556547Y-53351918D01*
X30536030Y-53339621D01*
X30516817Y-53325371D01*
X30499093Y-53309307D01*
X30483029Y-53291583D01*
X30468779Y-53272370D01*
X30456482Y-53251853D01*
X30446254Y-53230229D01*
X30438196Y-53207707D01*
X30432384Y-53184503D01*
X30428874Y-53160842D01*
X30427700Y-53136950D01*
X30427700Y-52649450D01*
X30428874Y-52625558D01*
X30432384Y-52601897D01*
X30438196Y-52578693D01*
X30446254Y-52556171D01*
X30456482Y-52534547D01*
X30468779Y-52514030D01*
X30483029Y-52494817D01*
X30499093Y-52477093D01*
X30516817Y-52461029D01*
X30536030Y-52446779D01*
X30556547Y-52434482D01*
X30578171Y-52424254D01*
X30600693Y-52416196D01*
X30623897Y-52410384D01*
X30647558Y-52406874D01*
X30671450Y-52405700D01*
X31583950Y-52405700D01*
X31607842Y-52406874D01*
G37*
G04 #@! TD.AperFunction*
G04 #@! TA.AperFunction,SMDPad,CuDef*
G36*
X31607842Y-50531874D02*
G01*
X31631503Y-50535384D01*
X31654707Y-50541196D01*
X31677229Y-50549254D01*
X31698853Y-50559482D01*
X31719370Y-50571779D01*
X31738583Y-50586029D01*
X31756307Y-50602093D01*
X31772371Y-50619817D01*
X31786621Y-50639030D01*
X31798918Y-50659547D01*
X31809146Y-50681171D01*
X31817204Y-50703693D01*
X31823016Y-50726897D01*
X31826526Y-50750558D01*
X31827700Y-50774450D01*
X31827700Y-51261950D01*
X31826526Y-51285842D01*
X31823016Y-51309503D01*
X31817204Y-51332707D01*
X31809146Y-51355229D01*
X31798918Y-51376853D01*
X31786621Y-51397370D01*
X31772371Y-51416583D01*
X31756307Y-51434307D01*
X31738583Y-51450371D01*
X31719370Y-51464621D01*
X31698853Y-51476918D01*
X31677229Y-51487146D01*
X31654707Y-51495204D01*
X31631503Y-51501016D01*
X31607842Y-51504526D01*
X31583950Y-51505700D01*
X30671450Y-51505700D01*
X30647558Y-51504526D01*
X30623897Y-51501016D01*
X30600693Y-51495204D01*
X30578171Y-51487146D01*
X30556547Y-51476918D01*
X30536030Y-51464621D01*
X30516817Y-51450371D01*
X30499093Y-51434307D01*
X30483029Y-51416583D01*
X30468779Y-51397370D01*
X30456482Y-51376853D01*
X30446254Y-51355229D01*
X30438196Y-51332707D01*
X30432384Y-51309503D01*
X30428874Y-51285842D01*
X30427700Y-51261950D01*
X30427700Y-50774450D01*
X30428874Y-50750558D01*
X30432384Y-50726897D01*
X30438196Y-50703693D01*
X30446254Y-50681171D01*
X30456482Y-50659547D01*
X30468779Y-50639030D01*
X30483029Y-50619817D01*
X30499093Y-50602093D01*
X30516817Y-50586029D01*
X30536030Y-50571779D01*
X30556547Y-50559482D01*
X30578171Y-50549254D01*
X30600693Y-50541196D01*
X30623897Y-50535384D01*
X30647558Y-50531874D01*
X30671450Y-50530700D01*
X31583950Y-50530700D01*
X31607842Y-50531874D01*
G37*
G04 #@! TD.AperFunction*
G04 #@! TA.AperFunction,SMDPad,CuDef*
G36*
X63397042Y-53415874D02*
G01*
X63420703Y-53419384D01*
X63443907Y-53425196D01*
X63466429Y-53433254D01*
X63488053Y-53443482D01*
X63508570Y-53455779D01*
X63527783Y-53470029D01*
X63545507Y-53486093D01*
X63561571Y-53503817D01*
X63575821Y-53523030D01*
X63588118Y-53543547D01*
X63598346Y-53565171D01*
X63606404Y-53587693D01*
X63612216Y-53610897D01*
X63615726Y-53634558D01*
X63616900Y-53658450D01*
X63616900Y-54570950D01*
X63615726Y-54594842D01*
X63612216Y-54618503D01*
X63606404Y-54641707D01*
X63598346Y-54664229D01*
X63588118Y-54685853D01*
X63575821Y-54706370D01*
X63561571Y-54725583D01*
X63545507Y-54743307D01*
X63527783Y-54759371D01*
X63508570Y-54773621D01*
X63488053Y-54785918D01*
X63466429Y-54796146D01*
X63443907Y-54804204D01*
X63420703Y-54810016D01*
X63397042Y-54813526D01*
X63373150Y-54814700D01*
X62885650Y-54814700D01*
X62861758Y-54813526D01*
X62838097Y-54810016D01*
X62814893Y-54804204D01*
X62792371Y-54796146D01*
X62770747Y-54785918D01*
X62750230Y-54773621D01*
X62731017Y-54759371D01*
X62713293Y-54743307D01*
X62697229Y-54725583D01*
X62682979Y-54706370D01*
X62670682Y-54685853D01*
X62660454Y-54664229D01*
X62652396Y-54641707D01*
X62646584Y-54618503D01*
X62643074Y-54594842D01*
X62641900Y-54570950D01*
X62641900Y-53658450D01*
X62643074Y-53634558D01*
X62646584Y-53610897D01*
X62652396Y-53587693D01*
X62660454Y-53565171D01*
X62670682Y-53543547D01*
X62682979Y-53523030D01*
X62697229Y-53503817D01*
X62713293Y-53486093D01*
X62731017Y-53470029D01*
X62750230Y-53455779D01*
X62770747Y-53443482D01*
X62792371Y-53433254D01*
X62814893Y-53425196D01*
X62838097Y-53419384D01*
X62861758Y-53415874D01*
X62885650Y-53414700D01*
X63373150Y-53414700D01*
X63397042Y-53415874D01*
G37*
G04 #@! TD.AperFunction*
G04 #@! TA.AperFunction,SMDPad,CuDef*
G36*
X61522042Y-53415874D02*
G01*
X61545703Y-53419384D01*
X61568907Y-53425196D01*
X61591429Y-53433254D01*
X61613053Y-53443482D01*
X61633570Y-53455779D01*
X61652783Y-53470029D01*
X61670507Y-53486093D01*
X61686571Y-53503817D01*
X61700821Y-53523030D01*
X61713118Y-53543547D01*
X61723346Y-53565171D01*
X61731404Y-53587693D01*
X61737216Y-53610897D01*
X61740726Y-53634558D01*
X61741900Y-53658450D01*
X61741900Y-54570950D01*
X61740726Y-54594842D01*
X61737216Y-54618503D01*
X61731404Y-54641707D01*
X61723346Y-54664229D01*
X61713118Y-54685853D01*
X61700821Y-54706370D01*
X61686571Y-54725583D01*
X61670507Y-54743307D01*
X61652783Y-54759371D01*
X61633570Y-54773621D01*
X61613053Y-54785918D01*
X61591429Y-54796146D01*
X61568907Y-54804204D01*
X61545703Y-54810016D01*
X61522042Y-54813526D01*
X61498150Y-54814700D01*
X61010650Y-54814700D01*
X60986758Y-54813526D01*
X60963097Y-54810016D01*
X60939893Y-54804204D01*
X60917371Y-54796146D01*
X60895747Y-54785918D01*
X60875230Y-54773621D01*
X60856017Y-54759371D01*
X60838293Y-54743307D01*
X60822229Y-54725583D01*
X60807979Y-54706370D01*
X60795682Y-54685853D01*
X60785454Y-54664229D01*
X60777396Y-54641707D01*
X60771584Y-54618503D01*
X60768074Y-54594842D01*
X60766900Y-54570950D01*
X60766900Y-53658450D01*
X60768074Y-53634558D01*
X60771584Y-53610897D01*
X60777396Y-53587693D01*
X60785454Y-53565171D01*
X60795682Y-53543547D01*
X60807979Y-53523030D01*
X60822229Y-53503817D01*
X60838293Y-53486093D01*
X60856017Y-53470029D01*
X60875230Y-53455779D01*
X60895747Y-53443482D01*
X60917371Y-53433254D01*
X60939893Y-53425196D01*
X60963097Y-53419384D01*
X60986758Y-53415874D01*
X61010650Y-53414700D01*
X61498150Y-53414700D01*
X61522042Y-53415874D01*
G37*
G04 #@! TD.AperFunction*
G04 #@! TA.AperFunction,SMDPad,CuDef*
G36*
X63409742Y-55917774D02*
G01*
X63433403Y-55921284D01*
X63456607Y-55927096D01*
X63479129Y-55935154D01*
X63500753Y-55945382D01*
X63521270Y-55957679D01*
X63540483Y-55971929D01*
X63558207Y-55987993D01*
X63574271Y-56005717D01*
X63588521Y-56024930D01*
X63600818Y-56045447D01*
X63611046Y-56067071D01*
X63619104Y-56089593D01*
X63624916Y-56112797D01*
X63628426Y-56136458D01*
X63629600Y-56160350D01*
X63629600Y-57072850D01*
X63628426Y-57096742D01*
X63624916Y-57120403D01*
X63619104Y-57143607D01*
X63611046Y-57166129D01*
X63600818Y-57187753D01*
X63588521Y-57208270D01*
X63574271Y-57227483D01*
X63558207Y-57245207D01*
X63540483Y-57261271D01*
X63521270Y-57275521D01*
X63500753Y-57287818D01*
X63479129Y-57298046D01*
X63456607Y-57306104D01*
X63433403Y-57311916D01*
X63409742Y-57315426D01*
X63385850Y-57316600D01*
X62898350Y-57316600D01*
X62874458Y-57315426D01*
X62850797Y-57311916D01*
X62827593Y-57306104D01*
X62805071Y-57298046D01*
X62783447Y-57287818D01*
X62762930Y-57275521D01*
X62743717Y-57261271D01*
X62725993Y-57245207D01*
X62709929Y-57227483D01*
X62695679Y-57208270D01*
X62683382Y-57187753D01*
X62673154Y-57166129D01*
X62665096Y-57143607D01*
X62659284Y-57120403D01*
X62655774Y-57096742D01*
X62654600Y-57072850D01*
X62654600Y-56160350D01*
X62655774Y-56136458D01*
X62659284Y-56112797D01*
X62665096Y-56089593D01*
X62673154Y-56067071D01*
X62683382Y-56045447D01*
X62695679Y-56024930D01*
X62709929Y-56005717D01*
X62725993Y-55987993D01*
X62743717Y-55971929D01*
X62762930Y-55957679D01*
X62783447Y-55945382D01*
X62805071Y-55935154D01*
X62827593Y-55927096D01*
X62850797Y-55921284D01*
X62874458Y-55917774D01*
X62898350Y-55916600D01*
X63385850Y-55916600D01*
X63409742Y-55917774D01*
G37*
G04 #@! TD.AperFunction*
G04 #@! TA.AperFunction,SMDPad,CuDef*
G36*
X61534742Y-55917774D02*
G01*
X61558403Y-55921284D01*
X61581607Y-55927096D01*
X61604129Y-55935154D01*
X61625753Y-55945382D01*
X61646270Y-55957679D01*
X61665483Y-55971929D01*
X61683207Y-55987993D01*
X61699271Y-56005717D01*
X61713521Y-56024930D01*
X61725818Y-56045447D01*
X61736046Y-56067071D01*
X61744104Y-56089593D01*
X61749916Y-56112797D01*
X61753426Y-56136458D01*
X61754600Y-56160350D01*
X61754600Y-57072850D01*
X61753426Y-57096742D01*
X61749916Y-57120403D01*
X61744104Y-57143607D01*
X61736046Y-57166129D01*
X61725818Y-57187753D01*
X61713521Y-57208270D01*
X61699271Y-57227483D01*
X61683207Y-57245207D01*
X61665483Y-57261271D01*
X61646270Y-57275521D01*
X61625753Y-57287818D01*
X61604129Y-57298046D01*
X61581607Y-57306104D01*
X61558403Y-57311916D01*
X61534742Y-57315426D01*
X61510850Y-57316600D01*
X61023350Y-57316600D01*
X60999458Y-57315426D01*
X60975797Y-57311916D01*
X60952593Y-57306104D01*
X60930071Y-57298046D01*
X60908447Y-57287818D01*
X60887930Y-57275521D01*
X60868717Y-57261271D01*
X60850993Y-57245207D01*
X60834929Y-57227483D01*
X60820679Y-57208270D01*
X60808382Y-57187753D01*
X60798154Y-57166129D01*
X60790096Y-57143607D01*
X60784284Y-57120403D01*
X60780774Y-57096742D01*
X60779600Y-57072850D01*
X60779600Y-56160350D01*
X60780774Y-56136458D01*
X60784284Y-56112797D01*
X60790096Y-56089593D01*
X60798154Y-56067071D01*
X60808382Y-56045447D01*
X60820679Y-56024930D01*
X60834929Y-56005717D01*
X60850993Y-55987993D01*
X60868717Y-55971929D01*
X60887930Y-55957679D01*
X60908447Y-55945382D01*
X60930071Y-55935154D01*
X60952593Y-55927096D01*
X60975797Y-55921284D01*
X60999458Y-55917774D01*
X61023350Y-55916600D01*
X61510850Y-55916600D01*
X61534742Y-55917774D01*
G37*
G04 #@! TD.AperFunction*
D19*
X64673480Y-16580360D03*
X65623480Y-14580360D03*
X63723480Y-14580360D03*
D20*
X31713800Y-16218400D03*
X26513800Y-45618400D03*
D21*
X21513800Y-45618400D03*
D20*
X16313800Y-16218400D03*
D22*
X61738200Y-17475200D03*
D23*
X57988200Y-17475200D03*
D24*
X46738200Y-17475200D03*
X41738200Y-17475200D03*
X36738200Y-17475200D03*
G04 #@! TA.AperFunction,ComponentPad*
D12*
G36*
X65878204Y-27950452D02*
G01*
X65903443Y-27954196D01*
X65928194Y-27960396D01*
X65952218Y-27968991D01*
X65975283Y-27979900D01*
X65997168Y-27993018D01*
X66017662Y-28008217D01*
X66036568Y-28025352D01*
X66053703Y-28044258D01*
X66068902Y-28064752D01*
X66082020Y-28086637D01*
X66092929Y-28109702D01*
X66101524Y-28133726D01*
X66107724Y-28158477D01*
X66111468Y-28183716D01*
X66112720Y-28209200D01*
X66112720Y-30189200D01*
X66111468Y-30214684D01*
X66107724Y-30239923D01*
X66101524Y-30264674D01*
X66092929Y-30288698D01*
X66082020Y-30311763D01*
X66068902Y-30333648D01*
X66053703Y-30354142D01*
X66036568Y-30373048D01*
X66017662Y-30390183D01*
X65997168Y-30405382D01*
X65975283Y-30418500D01*
X65952218Y-30429409D01*
X65928194Y-30438004D01*
X65903443Y-30444204D01*
X65878204Y-30447948D01*
X65852720Y-30449200D01*
X63872720Y-30449200D01*
X63847236Y-30447948D01*
X63821997Y-30444204D01*
X63797246Y-30438004D01*
X63773222Y-30429409D01*
X63750157Y-30418500D01*
X63728272Y-30405382D01*
X63707778Y-30390183D01*
X63688872Y-30373048D01*
X63671737Y-30354142D01*
X63656538Y-30333648D01*
X63643420Y-30311763D01*
X63632511Y-30288698D01*
X63623916Y-30264674D01*
X63617716Y-30239923D01*
X63613972Y-30214684D01*
X63612720Y-30189200D01*
X63612720Y-28209200D01*
X63613972Y-28183716D01*
X63617716Y-28158477D01*
X63623916Y-28133726D01*
X63632511Y-28109702D01*
X63643420Y-28086637D01*
X63656538Y-28064752D01*
X63671737Y-28044258D01*
X63688872Y-28025352D01*
X63707778Y-28008217D01*
X63728272Y-27993018D01*
X63750157Y-27979900D01*
X63773222Y-27968991D01*
X63797246Y-27960396D01*
X63821997Y-27954196D01*
X63847236Y-27950452D01*
X63872720Y-27949200D01*
X65852720Y-27949200D01*
X65878204Y-27950452D01*
G37*
G04 #@! TD.AperFunction*
D25*
X64862720Y-23599200D03*
G04 #@! TA.AperFunction,ComponentPad*
D12*
G36*
X41092684Y-28033952D02*
G01*
X41117923Y-28037696D01*
X41142674Y-28043896D01*
X41166698Y-28052491D01*
X41189763Y-28063400D01*
X41211648Y-28076518D01*
X41232142Y-28091717D01*
X41251048Y-28108852D01*
X41268183Y-28127758D01*
X41283382Y-28148252D01*
X41296500Y-28170137D01*
X41307409Y-28193202D01*
X41316004Y-28217226D01*
X41322204Y-28241977D01*
X41325948Y-28267216D01*
X41327200Y-28292700D01*
X41327200Y-30272700D01*
X41325948Y-30298184D01*
X41322204Y-30323423D01*
X41316004Y-30348174D01*
X41307409Y-30372198D01*
X41296500Y-30395263D01*
X41283382Y-30417148D01*
X41268183Y-30437642D01*
X41251048Y-30456548D01*
X41232142Y-30473683D01*
X41211648Y-30488882D01*
X41189763Y-30502000D01*
X41166698Y-30512909D01*
X41142674Y-30521504D01*
X41117923Y-30527704D01*
X41092684Y-30531448D01*
X41067200Y-30532700D01*
X39087200Y-30532700D01*
X39061716Y-30531448D01*
X39036477Y-30527704D01*
X39011726Y-30521504D01*
X38987702Y-30512909D01*
X38964637Y-30502000D01*
X38942752Y-30488882D01*
X38922258Y-30473683D01*
X38903352Y-30456548D01*
X38886217Y-30437642D01*
X38871018Y-30417148D01*
X38857900Y-30395263D01*
X38846991Y-30372198D01*
X38838396Y-30348174D01*
X38832196Y-30323423D01*
X38828452Y-30298184D01*
X38827200Y-30272700D01*
X38827200Y-28292700D01*
X38828452Y-28267216D01*
X38832196Y-28241977D01*
X38838396Y-28217226D01*
X38846991Y-28193202D01*
X38857900Y-28170137D01*
X38871018Y-28148252D01*
X38886217Y-28127758D01*
X38903352Y-28108852D01*
X38922258Y-28091717D01*
X38942752Y-28076518D01*
X38964637Y-28063400D01*
X38987702Y-28052491D01*
X39011726Y-28043896D01*
X39036477Y-28037696D01*
X39061716Y-28033952D01*
X39087200Y-28032700D01*
X41067200Y-28032700D01*
X41092684Y-28033952D01*
G37*
G04 #@! TD.AperFunction*
D26*
X40077200Y-34182700D03*
X40077200Y-39082700D03*
G04 #@! TA.AperFunction,ComponentPad*
D12*
G36*
X20163284Y-57820852D02*
G01*
X20188523Y-57824596D01*
X20213274Y-57830796D01*
X20237298Y-57839391D01*
X20260363Y-57850300D01*
X20282248Y-57863418D01*
X20302742Y-57878617D01*
X20321648Y-57895752D01*
X20338783Y-57914658D01*
X20353982Y-57935152D01*
X20367100Y-57957037D01*
X20378009Y-57980102D01*
X20386604Y-58004126D01*
X20392804Y-58028877D01*
X20396548Y-58054116D01*
X20397800Y-58079600D01*
X20397800Y-60059600D01*
X20396548Y-60085084D01*
X20392804Y-60110323D01*
X20386604Y-60135074D01*
X20378009Y-60159098D01*
X20367100Y-60182163D01*
X20353982Y-60204048D01*
X20338783Y-60224542D01*
X20321648Y-60243448D01*
X20302742Y-60260583D01*
X20282248Y-60275782D01*
X20260363Y-60288900D01*
X20237298Y-60299809D01*
X20213274Y-60308404D01*
X20188523Y-60314604D01*
X20163284Y-60318348D01*
X20137800Y-60319600D01*
X18157800Y-60319600D01*
X18132316Y-60318348D01*
X18107077Y-60314604D01*
X18082326Y-60308404D01*
X18058302Y-60299809D01*
X18035237Y-60288900D01*
X18013352Y-60275782D01*
X17992858Y-60260583D01*
X17973952Y-60243448D01*
X17956817Y-60224542D01*
X17941618Y-60204048D01*
X17928500Y-60182163D01*
X17917591Y-60159098D01*
X17908996Y-60135074D01*
X17902796Y-60110323D01*
X17899052Y-60085084D01*
X17897800Y-60059600D01*
X17897800Y-58079600D01*
X17899052Y-58054116D01*
X17902796Y-58028877D01*
X17908996Y-58004126D01*
X17917591Y-57980102D01*
X17928500Y-57957037D01*
X17941618Y-57935152D01*
X17956817Y-57914658D01*
X17973952Y-57895752D01*
X17992858Y-57878617D01*
X18013352Y-57863418D01*
X18035237Y-57850300D01*
X18058302Y-57839391D01*
X18082326Y-57830796D01*
X18107077Y-57824596D01*
X18132316Y-57820852D01*
X18157800Y-57819600D01*
X20137800Y-57819600D01*
X20163284Y-57820852D01*
G37*
G04 #@! TD.AperFunction*
D25*
X19147800Y-53469600D03*
D27*
X53447700Y-21269300D03*
X49447700Y-21269300D03*
X49447700Y-27219300D03*
X53447700Y-27219300D03*
G04 #@! TA.AperFunction,SMDPad,CuDef*
D12*
G36*
X54099542Y-16382054D02*
G01*
X54123203Y-16385564D01*
X54146407Y-16391376D01*
X54168929Y-16399434D01*
X54190553Y-16409662D01*
X54211070Y-16421959D01*
X54230283Y-16436209D01*
X54248007Y-16452273D01*
X54264071Y-16469997D01*
X54278321Y-16489210D01*
X54290618Y-16509727D01*
X54300846Y-16531351D01*
X54308904Y-16553873D01*
X54314716Y-16577077D01*
X54318226Y-16600738D01*
X54319400Y-16624630D01*
X54319400Y-17112130D01*
X54318226Y-17136022D01*
X54314716Y-17159683D01*
X54308904Y-17182887D01*
X54300846Y-17205409D01*
X54290618Y-17227033D01*
X54278321Y-17247550D01*
X54264071Y-17266763D01*
X54248007Y-17284487D01*
X54230283Y-17300551D01*
X54211070Y-17314801D01*
X54190553Y-17327098D01*
X54168929Y-17337326D01*
X54146407Y-17345384D01*
X54123203Y-17351196D01*
X54099542Y-17354706D01*
X54075650Y-17355880D01*
X53163150Y-17355880D01*
X53139258Y-17354706D01*
X53115597Y-17351196D01*
X53092393Y-17345384D01*
X53069871Y-17337326D01*
X53048247Y-17327098D01*
X53027730Y-17314801D01*
X53008517Y-17300551D01*
X52990793Y-17284487D01*
X52974729Y-17266763D01*
X52960479Y-17247550D01*
X52948182Y-17227033D01*
X52937954Y-17205409D01*
X52929896Y-17182887D01*
X52924084Y-17159683D01*
X52920574Y-17136022D01*
X52919400Y-17112130D01*
X52919400Y-16624630D01*
X52920574Y-16600738D01*
X52924084Y-16577077D01*
X52929896Y-16553873D01*
X52937954Y-16531351D01*
X52948182Y-16509727D01*
X52960479Y-16489210D01*
X52974729Y-16469997D01*
X52990793Y-16452273D01*
X53008517Y-16436209D01*
X53027730Y-16421959D01*
X53048247Y-16409662D01*
X53069871Y-16399434D01*
X53092393Y-16391376D01*
X53115597Y-16385564D01*
X53139258Y-16382054D01*
X53163150Y-16380880D01*
X54075650Y-16380880D01*
X54099542Y-16382054D01*
G37*
G04 #@! TD.AperFunction*
G04 #@! TA.AperFunction,SMDPad,CuDef*
G36*
X54099542Y-14507054D02*
G01*
X54123203Y-14510564D01*
X54146407Y-14516376D01*
X54168929Y-14524434D01*
X54190553Y-14534662D01*
X54211070Y-14546959D01*
X54230283Y-14561209D01*
X54248007Y-14577273D01*
X54264071Y-14594997D01*
X54278321Y-14614210D01*
X54290618Y-14634727D01*
X54300846Y-14656351D01*
X54308904Y-14678873D01*
X54314716Y-14702077D01*
X54318226Y-14725738D01*
X54319400Y-14749630D01*
X54319400Y-15237130D01*
X54318226Y-15261022D01*
X54314716Y-15284683D01*
X54308904Y-15307887D01*
X54300846Y-15330409D01*
X54290618Y-15352033D01*
X54278321Y-15372550D01*
X54264071Y-15391763D01*
X54248007Y-15409487D01*
X54230283Y-15425551D01*
X54211070Y-15439801D01*
X54190553Y-15452098D01*
X54168929Y-15462326D01*
X54146407Y-15470384D01*
X54123203Y-15476196D01*
X54099542Y-15479706D01*
X54075650Y-15480880D01*
X53163150Y-15480880D01*
X53139258Y-15479706D01*
X53115597Y-15476196D01*
X53092393Y-15470384D01*
X53069871Y-15462326D01*
X53048247Y-15452098D01*
X53027730Y-15439801D01*
X53008517Y-15425551D01*
X52990793Y-15409487D01*
X52974729Y-15391763D01*
X52960479Y-15372550D01*
X52948182Y-15352033D01*
X52937954Y-15330409D01*
X52929896Y-15307887D01*
X52924084Y-15284683D01*
X52920574Y-15261022D01*
X52919400Y-15237130D01*
X52919400Y-14749630D01*
X52920574Y-14725738D01*
X52924084Y-14702077D01*
X52929896Y-14678873D01*
X52937954Y-14656351D01*
X52948182Y-14634727D01*
X52960479Y-14614210D01*
X52974729Y-14594997D01*
X52990793Y-14577273D01*
X53008517Y-14561209D01*
X53027730Y-14546959D01*
X53048247Y-14534662D01*
X53069871Y-14524434D01*
X53092393Y-14516376D01*
X53115597Y-14510564D01*
X53139258Y-14507054D01*
X53163150Y-14505880D01*
X54075650Y-14505880D01*
X54099542Y-14507054D01*
G37*
G04 #@! TD.AperFunction*
G04 #@! TA.AperFunction,SMDPad,CuDef*
G36*
X57794384Y-32744444D02*
G01*
X57818653Y-32748044D01*
X57842451Y-32754005D01*
X57865551Y-32762270D01*
X57887729Y-32772760D01*
X57908773Y-32785373D01*
X57928478Y-32799987D01*
X57946657Y-32816463D01*
X57963133Y-32834642D01*
X57977747Y-32854347D01*
X57990360Y-32875391D01*
X58000850Y-32897569D01*
X58009115Y-32920669D01*
X58015076Y-32944467D01*
X58018676Y-32968736D01*
X58019880Y-32993240D01*
X58019880Y-34093240D01*
X58018676Y-34117744D01*
X58015076Y-34142013D01*
X58009115Y-34165811D01*
X58000850Y-34188911D01*
X57990360Y-34211089D01*
X57977747Y-34232133D01*
X57963133Y-34251838D01*
X57946657Y-34270017D01*
X57928478Y-34286493D01*
X57908773Y-34301107D01*
X57887729Y-34313720D01*
X57865551Y-34324210D01*
X57842451Y-34332475D01*
X57818653Y-34338436D01*
X57794384Y-34342036D01*
X57769880Y-34343240D01*
X55669880Y-34343240D01*
X55645376Y-34342036D01*
X55621107Y-34338436D01*
X55597309Y-34332475D01*
X55574209Y-34324210D01*
X55552031Y-34313720D01*
X55530987Y-34301107D01*
X55511282Y-34286493D01*
X55493103Y-34270017D01*
X55476627Y-34251838D01*
X55462013Y-34232133D01*
X55449400Y-34211089D01*
X55438910Y-34188911D01*
X55430645Y-34165811D01*
X55424684Y-34142013D01*
X55421084Y-34117744D01*
X55419880Y-34093240D01*
X55419880Y-32993240D01*
X55421084Y-32968736D01*
X55424684Y-32944467D01*
X55430645Y-32920669D01*
X55438910Y-32897569D01*
X55449400Y-32875391D01*
X55462013Y-32854347D01*
X55476627Y-32834642D01*
X55493103Y-32816463D01*
X55511282Y-32799987D01*
X55530987Y-32785373D01*
X55552031Y-32772760D01*
X55574209Y-32762270D01*
X55597309Y-32754005D01*
X55621107Y-32748044D01*
X55645376Y-32744444D01*
X55669880Y-32743240D01*
X57769880Y-32743240D01*
X57794384Y-32744444D01*
G37*
G04 #@! TD.AperFunction*
G04 #@! TA.AperFunction,SMDPad,CuDef*
G36*
X54194384Y-32744444D02*
G01*
X54218653Y-32748044D01*
X54242451Y-32754005D01*
X54265551Y-32762270D01*
X54287729Y-32772760D01*
X54308773Y-32785373D01*
X54328478Y-32799987D01*
X54346657Y-32816463D01*
X54363133Y-32834642D01*
X54377747Y-32854347D01*
X54390360Y-32875391D01*
X54400850Y-32897569D01*
X54409115Y-32920669D01*
X54415076Y-32944467D01*
X54418676Y-32968736D01*
X54419880Y-32993240D01*
X54419880Y-34093240D01*
X54418676Y-34117744D01*
X54415076Y-34142013D01*
X54409115Y-34165811D01*
X54400850Y-34188911D01*
X54390360Y-34211089D01*
X54377747Y-34232133D01*
X54363133Y-34251838D01*
X54346657Y-34270017D01*
X54328478Y-34286493D01*
X54308773Y-34301107D01*
X54287729Y-34313720D01*
X54265551Y-34324210D01*
X54242451Y-34332475D01*
X54218653Y-34338436D01*
X54194384Y-34342036D01*
X54169880Y-34343240D01*
X52069880Y-34343240D01*
X52045376Y-34342036D01*
X52021107Y-34338436D01*
X51997309Y-34332475D01*
X51974209Y-34324210D01*
X51952031Y-34313720D01*
X51930987Y-34301107D01*
X51911282Y-34286493D01*
X51893103Y-34270017D01*
X51876627Y-34251838D01*
X51862013Y-34232133D01*
X51849400Y-34211089D01*
X51838910Y-34188911D01*
X51830645Y-34165811D01*
X51824684Y-34142013D01*
X51821084Y-34117744D01*
X51819880Y-34093240D01*
X51819880Y-32993240D01*
X51821084Y-32968736D01*
X51824684Y-32944467D01*
X51830645Y-32920669D01*
X51838910Y-32897569D01*
X51849400Y-32875391D01*
X51862013Y-32854347D01*
X51876627Y-32834642D01*
X51893103Y-32816463D01*
X51911282Y-32799987D01*
X51930987Y-32785373D01*
X51952031Y-32772760D01*
X51974209Y-32762270D01*
X51997309Y-32754005D01*
X52021107Y-32748044D01*
X52045376Y-32744444D01*
X52069880Y-32743240D01*
X54169880Y-32743240D01*
X54194384Y-32744444D01*
G37*
G04 #@! TD.AperFunction*
G04 #@! TA.AperFunction,SMDPad,CuDef*
G36*
X17041804Y-29147804D02*
G01*
X17066073Y-29151404D01*
X17089871Y-29157365D01*
X17112971Y-29165630D01*
X17135149Y-29176120D01*
X17156193Y-29188733D01*
X17175898Y-29203347D01*
X17194077Y-29219823D01*
X17210553Y-29238002D01*
X17225167Y-29257707D01*
X17237780Y-29278751D01*
X17248270Y-29300929D01*
X17256535Y-29324029D01*
X17262496Y-29347827D01*
X17266096Y-29372096D01*
X17267300Y-29396600D01*
X17267300Y-30496600D01*
X17266096Y-30521104D01*
X17262496Y-30545373D01*
X17256535Y-30569171D01*
X17248270Y-30592271D01*
X17237780Y-30614449D01*
X17225167Y-30635493D01*
X17210553Y-30655198D01*
X17194077Y-30673377D01*
X17175898Y-30689853D01*
X17156193Y-30704467D01*
X17135149Y-30717080D01*
X17112971Y-30727570D01*
X17089871Y-30735835D01*
X17066073Y-30741796D01*
X17041804Y-30745396D01*
X17017300Y-30746600D01*
X14917300Y-30746600D01*
X14892796Y-30745396D01*
X14868527Y-30741796D01*
X14844729Y-30735835D01*
X14821629Y-30727570D01*
X14799451Y-30717080D01*
X14778407Y-30704467D01*
X14758702Y-30689853D01*
X14740523Y-30673377D01*
X14724047Y-30655198D01*
X14709433Y-30635493D01*
X14696820Y-30614449D01*
X14686330Y-30592271D01*
X14678065Y-30569171D01*
X14672104Y-30545373D01*
X14668504Y-30521104D01*
X14667300Y-30496600D01*
X14667300Y-29396600D01*
X14668504Y-29372096D01*
X14672104Y-29347827D01*
X14678065Y-29324029D01*
X14686330Y-29300929D01*
X14696820Y-29278751D01*
X14709433Y-29257707D01*
X14724047Y-29238002D01*
X14740523Y-29219823D01*
X14758702Y-29203347D01*
X14778407Y-29188733D01*
X14799451Y-29176120D01*
X14821629Y-29165630D01*
X14844729Y-29157365D01*
X14868527Y-29151404D01*
X14892796Y-29147804D01*
X14917300Y-29146600D01*
X17017300Y-29146600D01*
X17041804Y-29147804D01*
G37*
G04 #@! TD.AperFunction*
G04 #@! TA.AperFunction,SMDPad,CuDef*
G36*
X20641804Y-29147804D02*
G01*
X20666073Y-29151404D01*
X20689871Y-29157365D01*
X20712971Y-29165630D01*
X20735149Y-29176120D01*
X20756193Y-29188733D01*
X20775898Y-29203347D01*
X20794077Y-29219823D01*
X20810553Y-29238002D01*
X20825167Y-29257707D01*
X20837780Y-29278751D01*
X20848270Y-29300929D01*
X20856535Y-29324029D01*
X20862496Y-29347827D01*
X20866096Y-29372096D01*
X20867300Y-29396600D01*
X20867300Y-30496600D01*
X20866096Y-30521104D01*
X20862496Y-30545373D01*
X20856535Y-30569171D01*
X20848270Y-30592271D01*
X20837780Y-30614449D01*
X20825167Y-30635493D01*
X20810553Y-30655198D01*
X20794077Y-30673377D01*
X20775898Y-30689853D01*
X20756193Y-30704467D01*
X20735149Y-30717080D01*
X20712971Y-30727570D01*
X20689871Y-30735835D01*
X20666073Y-30741796D01*
X20641804Y-30745396D01*
X20617300Y-30746600D01*
X18517300Y-30746600D01*
X18492796Y-30745396D01*
X18468527Y-30741796D01*
X18444729Y-30735835D01*
X18421629Y-30727570D01*
X18399451Y-30717080D01*
X18378407Y-30704467D01*
X18358702Y-30689853D01*
X18340523Y-30673377D01*
X18324047Y-30655198D01*
X18309433Y-30635493D01*
X18296820Y-30614449D01*
X18286330Y-30592271D01*
X18278065Y-30569171D01*
X18272104Y-30545373D01*
X18268504Y-30521104D01*
X18267300Y-30496600D01*
X18267300Y-29396600D01*
X18268504Y-29372096D01*
X18272104Y-29347827D01*
X18278065Y-29324029D01*
X18286330Y-29300929D01*
X18296820Y-29278751D01*
X18309433Y-29257707D01*
X18324047Y-29238002D01*
X18340523Y-29219823D01*
X18358702Y-29203347D01*
X18378407Y-29188733D01*
X18399451Y-29176120D01*
X18421629Y-29165630D01*
X18444729Y-29157365D01*
X18468527Y-29151404D01*
X18492796Y-29147804D01*
X18517300Y-29146600D01*
X20617300Y-29146600D01*
X20641804Y-29147804D01*
G37*
G04 #@! TD.AperFunction*
G04 #@! TA.AperFunction,SMDPad,CuDef*
G36*
X16876704Y-21172204D02*
G01*
X16900973Y-21175804D01*
X16924771Y-21181765D01*
X16947871Y-21190030D01*
X16970049Y-21200520D01*
X16991093Y-21213133D01*
X17010798Y-21227747D01*
X17028977Y-21244223D01*
X17045453Y-21262402D01*
X17060067Y-21282107D01*
X17072680Y-21303151D01*
X17083170Y-21325329D01*
X17091435Y-21348429D01*
X17097396Y-21372227D01*
X17100996Y-21396496D01*
X17102200Y-21421000D01*
X17102200Y-22521000D01*
X17100996Y-22545504D01*
X17097396Y-22569773D01*
X17091435Y-22593571D01*
X17083170Y-22616671D01*
X17072680Y-22638849D01*
X17060067Y-22659893D01*
X17045453Y-22679598D01*
X17028977Y-22697777D01*
X17010798Y-22714253D01*
X16991093Y-22728867D01*
X16970049Y-22741480D01*
X16947871Y-22751970D01*
X16924771Y-22760235D01*
X16900973Y-22766196D01*
X16876704Y-22769796D01*
X16852200Y-22771000D01*
X14752200Y-22771000D01*
X14727696Y-22769796D01*
X14703427Y-22766196D01*
X14679629Y-22760235D01*
X14656529Y-22751970D01*
X14634351Y-22741480D01*
X14613307Y-22728867D01*
X14593602Y-22714253D01*
X14575423Y-22697777D01*
X14558947Y-22679598D01*
X14544333Y-22659893D01*
X14531720Y-22638849D01*
X14521230Y-22616671D01*
X14512965Y-22593571D01*
X14507004Y-22569773D01*
X14503404Y-22545504D01*
X14502200Y-22521000D01*
X14502200Y-21421000D01*
X14503404Y-21396496D01*
X14507004Y-21372227D01*
X14512965Y-21348429D01*
X14521230Y-21325329D01*
X14531720Y-21303151D01*
X14544333Y-21282107D01*
X14558947Y-21262402D01*
X14575423Y-21244223D01*
X14593602Y-21227747D01*
X14613307Y-21213133D01*
X14634351Y-21200520D01*
X14656529Y-21190030D01*
X14679629Y-21181765D01*
X14703427Y-21175804D01*
X14727696Y-21172204D01*
X14752200Y-21171000D01*
X16852200Y-21171000D01*
X16876704Y-21172204D01*
G37*
G04 #@! TD.AperFunction*
G04 #@! TA.AperFunction,SMDPad,CuDef*
G36*
X20476704Y-21172204D02*
G01*
X20500973Y-21175804D01*
X20524771Y-21181765D01*
X20547871Y-21190030D01*
X20570049Y-21200520D01*
X20591093Y-21213133D01*
X20610798Y-21227747D01*
X20628977Y-21244223D01*
X20645453Y-21262402D01*
X20660067Y-21282107D01*
X20672680Y-21303151D01*
X20683170Y-21325329D01*
X20691435Y-21348429D01*
X20697396Y-21372227D01*
X20700996Y-21396496D01*
X20702200Y-21421000D01*
X20702200Y-22521000D01*
X20700996Y-22545504D01*
X20697396Y-22569773D01*
X20691435Y-22593571D01*
X20683170Y-22616671D01*
X20672680Y-22638849D01*
X20660067Y-22659893D01*
X20645453Y-22679598D01*
X20628977Y-22697777D01*
X20610798Y-22714253D01*
X20591093Y-22728867D01*
X20570049Y-22741480D01*
X20547871Y-22751970D01*
X20524771Y-22760235D01*
X20500973Y-22766196D01*
X20476704Y-22769796D01*
X20452200Y-22771000D01*
X18352200Y-22771000D01*
X18327696Y-22769796D01*
X18303427Y-22766196D01*
X18279629Y-22760235D01*
X18256529Y-22751970D01*
X18234351Y-22741480D01*
X18213307Y-22728867D01*
X18193602Y-22714253D01*
X18175423Y-22697777D01*
X18158947Y-22679598D01*
X18144333Y-22659893D01*
X18131720Y-22638849D01*
X18121230Y-22616671D01*
X18112965Y-22593571D01*
X18107004Y-22569773D01*
X18103404Y-22545504D01*
X18102200Y-22521000D01*
X18102200Y-21421000D01*
X18103404Y-21396496D01*
X18107004Y-21372227D01*
X18112965Y-21348429D01*
X18121230Y-21325329D01*
X18131720Y-21303151D01*
X18144333Y-21282107D01*
X18158947Y-21262402D01*
X18175423Y-21244223D01*
X18193602Y-21227747D01*
X18213307Y-21213133D01*
X18234351Y-21200520D01*
X18256529Y-21190030D01*
X18279629Y-21181765D01*
X18303427Y-21175804D01*
X18327696Y-21172204D01*
X18352200Y-21171000D01*
X20452200Y-21171000D01*
X20476704Y-21172204D01*
G37*
G04 #@! TD.AperFunction*
D28*
X29375100Y-51066700D03*
X68503800Y-13644880D03*
X54178200Y-36845240D03*
X49814480Y-36845240D03*
X57759600Y-51015900D03*
X68011040Y-20177760D03*
X59791600Y-35290760D03*
X52209700Y-51879500D03*
X51206400Y-47561500D03*
X63957200Y-61595000D03*
X61226700Y-58750200D03*
X43294300Y-50571400D03*
X56103520Y-25572720D03*
D29*
X16313800Y-21459400D02*
X15802200Y-21971000D01*
X16313800Y-16218400D02*
X16313800Y-21459400D01*
X15976600Y-29937300D02*
X15967300Y-29946600D01*
X15802200Y-21971000D02*
X15836900Y-21971000D01*
X15976600Y-22110700D02*
X15976600Y-29937300D01*
X15836900Y-21971000D02*
X15976600Y-22110700D01*
X16014700Y-23495000D02*
X15963900Y-23545800D01*
X21539200Y-23495000D02*
X16014700Y-23495000D01*
X21844000Y-23190200D02*
X21539200Y-23495000D01*
X25295900Y-26596300D02*
X25717500Y-26174700D01*
X25717500Y-26174700D02*
X25717500Y-23545800D01*
X23998000Y-26596300D02*
X25295900Y-26596300D01*
X25361900Y-23190200D02*
X21844000Y-23190200D01*
X25717500Y-23545800D02*
X25361900Y-23190200D01*
X37290100Y-44279500D02*
X34818000Y-44279500D01*
X31127700Y-45034200D02*
X31127700Y-51018200D01*
X34818000Y-44279500D02*
X31882400Y-44279500D01*
X31882400Y-44279500D02*
X31127700Y-45034200D01*
X31091900Y-51054000D02*
X31127700Y-51018200D01*
X29375100Y-51066700D02*
X29387800Y-51054000D01*
X29387800Y-51054000D02*
X31091900Y-51054000D01*
X23939500Y-26654800D02*
X23998000Y-26596300D01*
X23939500Y-36525200D02*
X23939500Y-26654800D01*
X34818000Y-44279500D02*
X31693800Y-44279500D01*
X31693800Y-44279500D02*
X23939500Y-36525200D01*
X23998000Y-28105100D02*
X23998000Y-26596300D01*
X37020500Y-25933400D02*
X34848800Y-28105100D01*
X34848800Y-28105100D02*
X23998000Y-28105100D01*
X37290100Y-43919500D02*
X37251640Y-43881040D01*
X37290100Y-44279500D02*
X37290100Y-43919500D01*
X56604200Y-36804600D02*
X56662320Y-36746480D01*
X56662320Y-33600800D02*
X56719880Y-33543240D01*
X56662320Y-36746480D02*
X56662320Y-33600800D01*
X64658240Y-16565120D02*
X64658240Y-13644880D01*
X64673480Y-16580360D02*
X64658240Y-16565120D01*
X64658240Y-13644880D02*
X68503800Y-13644880D01*
X56604200Y-36804600D02*
X56563560Y-36845240D01*
X56563560Y-36845240D02*
X54162960Y-36845240D01*
X38206680Y-41833800D02*
X37290100Y-42750380D01*
X41290240Y-41833800D02*
X38206680Y-41833800D01*
X37290100Y-42750380D02*
X37290100Y-44279500D01*
X49814480Y-36845240D02*
X46278800Y-36845240D01*
X46278800Y-36845240D02*
X41290240Y-41833800D01*
X68392040Y-37541200D02*
X57480200Y-37541200D01*
X69621400Y-36311840D02*
X68392040Y-37541200D01*
X69621400Y-14762480D02*
X69621400Y-36311840D01*
X57480200Y-37541200D02*
X57449720Y-37510720D01*
X68503800Y-13644880D02*
X69621400Y-14762480D01*
X57305240Y-37505640D02*
X59298840Y-37505640D01*
X56604200Y-36804600D02*
X57305240Y-37505640D01*
X64109600Y-39300680D02*
X64109600Y-37463200D01*
X61010800Y-37505640D02*
X58475880Y-37505640D01*
X67297300Y-49872900D02*
X61010800Y-43586400D01*
X61010800Y-43586400D02*
X61010800Y-37505640D01*
X19567300Y-25987600D02*
X19567300Y-29946600D01*
X23998000Y-24296300D02*
X21258600Y-24296300D01*
X21258600Y-24296300D02*
X19567300Y-25987600D01*
X63142100Y-56616600D02*
X63129400Y-54114700D01*
X63129400Y-54114700D02*
X63142100Y-51777900D01*
X63142100Y-51777900D02*
X63142100Y-49618900D01*
X37290100Y-60480300D02*
X37290100Y-59479500D01*
X61874400Y-61823600D02*
X38633400Y-61823600D01*
X38633400Y-61823600D02*
X37290100Y-60480300D01*
X63055500Y-60642500D02*
X61874400Y-61823600D01*
X37193900Y-59575700D02*
X37290100Y-59479500D01*
X31978600Y-56349900D02*
X35204400Y-59575700D01*
X19567300Y-34718400D02*
X28219400Y-43370500D01*
X28219400Y-54533800D02*
X30035500Y-56349900D01*
X30035500Y-56349900D02*
X31978600Y-56349900D01*
X35204400Y-59575700D02*
X37193900Y-59575700D01*
X19567300Y-29946600D02*
X19567300Y-34718400D01*
X28219400Y-43370500D02*
X28219400Y-54533800D01*
X63055500Y-60147200D02*
X67297300Y-60032900D01*
X63055500Y-60147200D02*
X63055500Y-60642500D01*
X63055500Y-56438800D02*
X63055500Y-60147200D01*
X49447700Y-26054300D02*
X49447700Y-27219300D01*
X44640500Y-23393400D02*
X46786800Y-23393400D01*
X46786800Y-23393400D02*
X49447700Y-26054300D01*
X52984400Y-29044900D02*
X53447700Y-27219300D01*
X47838600Y-28994100D02*
X47889400Y-29044900D01*
X47889400Y-29044900D02*
X52984400Y-29044900D01*
X65780920Y-17866360D02*
X64792620Y-18854660D01*
X65623480Y-14580360D02*
X65780920Y-14737800D01*
X64792620Y-18854660D02*
X64792620Y-20086320D01*
X65780920Y-14737800D02*
X65780920Y-17866360D01*
X61738200Y-16747800D02*
X61738200Y-17475200D01*
X63707480Y-14564360D02*
X63723480Y-14580360D01*
X53619400Y-14993380D02*
X54048420Y-14564360D01*
X61742320Y-14564360D02*
X61738200Y-17475200D01*
X61742320Y-14564360D02*
X63707480Y-14564360D01*
X54048420Y-14564360D02*
X61742320Y-14564360D01*
X23985200Y-22009100D02*
X23998000Y-21996300D01*
X19402200Y-21971000D02*
X19440300Y-22009100D01*
X19440300Y-22009100D02*
X23985200Y-22009100D01*
X23998000Y-21996300D02*
X23998000Y-19626500D01*
X27406100Y-16218400D02*
X31713800Y-16218400D01*
X23998000Y-19626500D02*
X27406100Y-16218400D01*
X43290100Y-54948700D02*
X43290100Y-59479500D01*
X52968300Y-38684200D02*
X46291500Y-38684200D01*
X52968300Y-33655000D02*
X52968300Y-38684200D01*
X46291500Y-38684200D02*
X42265600Y-42710100D01*
X42265600Y-42710100D02*
X42265600Y-53924200D01*
X42265600Y-53924200D02*
X43290100Y-54948700D01*
X55968900Y-49580800D02*
X61229000Y-49580800D01*
X61229000Y-49580800D02*
X61267100Y-49618900D01*
X52974240Y-46586140D02*
X55968900Y-49580800D01*
X52968300Y-33655000D02*
X52974240Y-33660940D01*
X52974240Y-33660940D02*
X52974240Y-46586140D01*
X38417500Y-23342600D02*
X37020500Y-23342600D01*
X42087800Y-27012900D02*
X38417500Y-23342600D01*
X42087800Y-28917900D02*
X42087800Y-27012900D01*
X53035200Y-33588100D02*
X49021140Y-33588100D01*
X52968300Y-33655000D02*
X53035200Y-33588100D01*
X49021140Y-33588100D02*
X46916340Y-31483300D01*
X46916340Y-31483300D02*
X44653200Y-31483300D01*
X44653200Y-31483300D02*
X42087800Y-28917900D01*
X54312580Y-17561560D02*
X53619400Y-16868380D01*
X57988200Y-17475200D02*
X57901840Y-17561560D01*
X57901840Y-17561560D02*
X54312580Y-17561560D01*
X66994800Y-19657300D02*
X66994800Y-20078700D01*
X60505100Y-51015900D02*
X61267100Y-51777900D01*
X45290100Y-56322600D02*
X48501300Y-53111400D01*
X53187600Y-53111400D02*
X55283100Y-51015900D01*
X48501300Y-53111400D02*
X53187600Y-53111400D01*
X55283100Y-51015900D02*
X57759600Y-51015900D01*
X57759600Y-51015900D02*
X60505100Y-51015900D01*
X68011040Y-20177760D02*
X67924680Y-20091400D01*
X67924680Y-20091400D02*
X66672700Y-20091400D01*
X66672700Y-20091400D02*
X66667620Y-20086320D01*
X67990720Y-20086320D02*
X66667620Y-20086320D01*
X67990720Y-32009080D02*
X67990720Y-20086320D01*
X65887600Y-34112200D02*
X67990720Y-32009080D01*
X59791600Y-35290760D02*
X60970160Y-34112200D01*
X60970160Y-34112200D02*
X65887600Y-34112200D01*
X49288700Y-44280900D02*
X49290100Y-44279500D01*
X49288700Y-50520600D02*
X49288700Y-44280900D01*
X50634900Y-51866800D02*
X49288700Y-50520600D01*
X52197000Y-51866800D02*
X50634900Y-51866800D01*
X52209700Y-51879500D02*
X52197000Y-51866800D01*
X51290100Y-44279500D02*
X51257200Y-44312400D01*
X51257200Y-47510700D02*
X51206400Y-47561500D01*
X51257200Y-44312400D02*
X51257200Y-47510700D01*
D30*
X41783000Y-17475200D02*
X41738200Y-17475200D01*
X44221400Y-15036800D02*
X41783000Y-17475200D01*
X49441100Y-21285200D02*
X49441100Y-16332200D01*
X48145700Y-15036800D02*
X44221400Y-15036800D01*
X49441100Y-16332200D02*
X48145700Y-15036800D01*
X64824620Y-23637300D02*
X59527500Y-23637300D01*
X64862720Y-23599200D02*
X64824620Y-23637300D01*
X49447700Y-19983200D02*
X49447700Y-21269300D01*
X59527500Y-23637300D02*
X55664100Y-19773900D01*
X55664100Y-19773900D02*
X49657000Y-19773900D01*
X49657000Y-19773900D02*
X49447700Y-19983200D01*
D29*
X63957200Y-61595000D02*
X63957200Y-61595000D01*
X60452000Y-59563000D02*
X51373600Y-59563000D01*
X51373600Y-59563000D02*
X51290100Y-59479500D01*
X61267100Y-56616600D02*
X61267100Y-58747900D01*
X61267100Y-58747900D02*
X60452000Y-59563000D01*
X61267100Y-58709800D02*
X61267100Y-56616600D01*
X61226700Y-58750200D02*
X61267100Y-58709800D01*
X68376800Y-61595000D02*
X63957200Y-61595000D01*
X64074040Y-42880280D02*
X64104520Y-42910760D01*
X64104520Y-42910760D02*
X66512440Y-42910760D01*
X68834000Y-61137800D02*
X68376800Y-61595000D01*
X66512440Y-42910760D02*
X68834000Y-45232320D01*
X68834000Y-45232320D02*
X68834000Y-61137800D01*
X58981100Y-56388000D02*
X61254400Y-54114700D01*
X48895000Y-56388000D02*
X58981100Y-56388000D01*
X47290100Y-59479500D02*
X47290100Y-57992900D01*
X47290100Y-57992900D02*
X48895000Y-56388000D01*
X39230300Y-44339300D02*
X39290100Y-44279500D01*
X39230300Y-46723300D02*
X39230300Y-44339300D01*
X32626300Y-49415700D02*
X34163000Y-47879000D01*
X38074600Y-47879000D02*
X39230300Y-46723300D01*
X32107900Y-52893200D02*
X32626300Y-52374800D01*
X32626300Y-52374800D02*
X32626300Y-49415700D01*
X31127700Y-52893200D02*
X32107900Y-52893200D01*
X34163000Y-47879000D02*
X38074600Y-47879000D01*
X42938700Y-22555200D02*
X44640500Y-20853400D01*
X42938700Y-27482800D02*
X42938700Y-22555200D01*
X45963600Y-28994100D02*
X44450000Y-28994100D01*
X44450000Y-28994100D02*
X42938700Y-27482800D01*
X43290100Y-44279500D02*
X43294300Y-50571400D01*
X43294300Y-50571400D02*
X43294300Y-50571400D01*
D30*
X53459380Y-21137880D02*
X53416200Y-21094700D01*
X53482240Y-22997160D02*
X53482240Y-21137880D01*
X53482240Y-21137880D02*
X53459380Y-21137880D01*
X56103520Y-25572720D02*
X56057800Y-25572720D01*
X56057800Y-25572720D02*
X53482240Y-22997160D01*
X59649360Y-29164280D02*
X59649360Y-29291280D01*
X56103520Y-25572720D02*
X56103520Y-25618440D01*
X56103520Y-25618440D02*
X59649360Y-29164280D01*
X64851920Y-29210000D02*
X59522360Y-29210000D01*
X64862720Y-29199200D02*
X64851920Y-29210000D01*
M02*
